<mxfile host="app.diagrams.net" agent="Mozilla/5.0 (Windows NT 10.0; Win64; x64) AppleWebKit/537.36 (KHTML, like Gecko) Chrome/136.0.0.0 Safari/537.36" version="27.0.6" pages="6">
  <diagram id="t_K1zktTjPIeY6mSEjCS" name="第 1 页">
    <mxGraphModel dx="1826" dy="1264" grid="0" gridSize="35" guides="1" tooltips="1" connect="1" arrows="1" fold="1" page="0" pageScale="1" pageWidth="1169" pageHeight="827" background="#ffffff" math="0" shadow="0">
      <root>
        <mxCell id="0" />
        <mxCell id="1" parent="0" />
        <mxCell id="loKvxlCEwGzuTpM9QevA-4" value="" style="edgeStyle=orthogonalEdgeStyle;rounded=0;orthogonalLoop=1;jettySize=auto;html=1;" parent="1" source="loKvxlCEwGzuTpM9QevA-2" target="loKvxlCEwGzuTpM9QevA-3" edge="1">
          <mxGeometry relative="1" as="geometry" />
        </mxCell>
        <mxCell id="loKvxlCEwGzuTpM9QevA-2" value="cmd指令" style="text;fillColor=none;html=1;fontSize=24;fontStyle=1;verticalAlign=middle;align=center;rounded=0;strokeColor=#000000;" parent="1" vertex="1">
          <mxGeometry x="50" y="246.88" width="130" height="60" as="geometry" />
        </mxCell>
        <mxCell id="loKvxlCEwGzuTpM9QevA-14" value="" style="edgeStyle=orthogonalEdgeStyle;rounded=0;orthogonalLoop=1;jettySize=auto;html=1;" parent="1" source="loKvxlCEwGzuTpM9QevA-3" target="loKvxlCEwGzuTpM9QevA-13" edge="1">
          <mxGeometry relative="1" as="geometry" />
        </mxCell>
        <mxCell id="loKvxlCEwGzuTpM9QevA-3" value="" style="text;fillColor=#dae8fc;html=1;fontSize=24;fontStyle=1;verticalAlign=middle;align=center;rounded=0;strokeColor=#6c8ebf;" parent="1" vertex="1">
          <mxGeometry x="310" y="183.75" width="190" height="186.25" as="geometry" />
        </mxCell>
        <mxCell id="loKvxlCEwGzuTpM9QevA-13" value="操作Windows目录（文件系统）" style="text;fillColor=none;html=1;fontSize=24;fontStyle=1;verticalAlign=middle;align=center;rounded=0;strokeColor=#000000;" parent="1" vertex="1">
          <mxGeometry x="585" y="246.88" width="395" height="60" as="geometry" />
        </mxCell>
        <mxCell id="loKvxlCEwGzuTpM9QevA-5" value="DOS" style="text;strokeColor=none;html=1;fontSize=24;fontStyle=1;verticalAlign=middle;align=center;rounded=0;labelBackgroundColor=#ffffff;" parent="1" vertex="1">
          <mxGeometry x="355" y="143.75" width="100" height="40" as="geometry" />
        </mxCell>
        <mxCell id="loKvxlCEwGzuTpM9QevA-6" value="" style="rounded=0;whiteSpace=wrap;html=1;strokeColor=#000000;fillColor=none;" parent="1" vertex="1">
          <mxGeometry x="310" y="183.75" width="190" height="60" as="geometry" />
        </mxCell>
        <mxCell id="loKvxlCEwGzuTpM9QevA-9" value="" style="rounded=0;whiteSpace=wrap;html=1;strokeColor=#000000;fillColor=none;" parent="1" vertex="1">
          <mxGeometry x="310" y="244" width="190" height="60" as="geometry" />
        </mxCell>
        <mxCell id="loKvxlCEwGzuTpM9QevA-10" value="1）接受指令" style="text;strokeColor=none;html=1;fontSize=24;fontStyle=1;verticalAlign=middle;align=center;rounded=0;" parent="1" vertex="1">
          <mxGeometry x="330" y="193.75" width="150" height="40" as="geometry" />
        </mxCell>
        <mxCell id="loKvxlCEwGzuTpM9QevA-11" value="2）解析指令" style="text;strokeColor=none;html=1;fontSize=24;fontStyle=1;verticalAlign=middle;align=center;rounded=0;" parent="1" vertex="1">
          <mxGeometry x="330" y="254" width="150" height="40" as="geometry" />
        </mxCell>
        <mxCell id="loKvxlCEwGzuTpM9QevA-12" value="3）执行指令" style="text;strokeColor=none;html=1;fontSize=24;fontStyle=1;verticalAlign=middle;align=center;rounded=0;" parent="1" vertex="1">
          <mxGeometry x="330" y="320" width="150" height="40" as="geometry" />
        </mxCell>
        <mxCell id="gzeoQ_sDqy0WENIaZlR--1" value="" style="rounded=1;whiteSpace=wrap;html=1;strokeWidth=2;fillWeight=4;hachureGap=8;hachureAngle=45;fillColor=#1ba1e2;sketch=1;labelBackgroundColor=#ffffff;" parent="1" vertex="1">
          <mxGeometry x="-270" y="10" width="1550" height="60" as="geometry" />
        </mxCell>
        <mxCell id="gzeoQ_sDqy0WENIaZlR--2" value="专题一——《面向对象之前》" style="text;strokeColor=none;fillColor=none;html=1;fontSize=40;fontStyle=1;verticalAlign=middle;align=center;labelBackgroundColor=#ffffff;" parent="1" vertex="1">
          <mxGeometry x="-180" y="-60" width="370" height="40" as="geometry" />
        </mxCell>
        <mxCell id="gzeoQ_sDqy0WENIaZlR--3" value="" style="shape=table;html=1;whiteSpace=wrap;startSize=0;container=1;collapsible=0;childLayout=tableLayout;fontSize=25;" parent="1" vertex="1">
          <mxGeometry x="100" y="470" width="870" height="360" as="geometry" />
        </mxCell>
        <mxCell id="gzeoQ_sDqy0WENIaZlR--4" value="" style="shape=partialRectangle;html=1;whiteSpace=wrap;collapsible=0;dropTarget=0;pointerEvents=0;fillColor=none;top=0;left=0;bottom=0;right=0;points=[[0,0.5],[1,0.5]];portConstraint=eastwest;fontSize=25;" parent="gzeoQ_sDqy0WENIaZlR--3" vertex="1">
          <mxGeometry width="870" height="40" as="geometry" />
        </mxCell>
        <mxCell id="gzeoQ_sDqy0WENIaZlR--5" value="基本数据类型" style="shape=partialRectangle;html=1;whiteSpace=wrap;connectable=0;overflow=hidden;fillColor=none;top=0;left=0;bottom=0;right=0;fontSize=25;fontStyle=1" parent="gzeoQ_sDqy0WENIaZlR--4" vertex="1">
          <mxGeometry width="250" height="40" as="geometry" />
        </mxCell>
        <mxCell id="gzeoQ_sDqy0WENIaZlR--6" value="所占字节" style="shape=partialRectangle;html=1;whiteSpace=wrap;connectable=0;overflow=hidden;fillColor=none;top=0;left=0;bottom=0;right=0;fontSize=25;fontStyle=1" parent="gzeoQ_sDqy0WENIaZlR--4" vertex="1">
          <mxGeometry x="250" width="200" height="40" as="geometry" />
        </mxCell>
        <mxCell id="gzeoQ_sDqy0WENIaZlR--7" value="表示范围" style="shape=partialRectangle;html=1;whiteSpace=wrap;connectable=0;overflow=hidden;fillColor=none;top=0;left=0;bottom=0;right=0;fontSize=25;fontStyle=1" parent="gzeoQ_sDqy0WENIaZlR--4" vertex="1">
          <mxGeometry x="450" width="420" height="40" as="geometry" />
        </mxCell>
        <mxCell id="gzeoQ_sDqy0WENIaZlR--8" value="" style="shape=partialRectangle;html=1;whiteSpace=wrap;collapsible=0;dropTarget=0;pointerEvents=0;fillColor=none;top=0;left=0;bottom=0;right=0;points=[[0,0.5],[1,0.5]];portConstraint=eastwest;fontSize=25;" parent="gzeoQ_sDqy0WENIaZlR--3" vertex="1">
          <mxGeometry y="40" width="870" height="40" as="geometry" />
        </mxCell>
        <mxCell id="gzeoQ_sDqy0WENIaZlR--9" value="byte" style="shape=partialRectangle;html=1;whiteSpace=wrap;connectable=0;overflow=hidden;fillColor=none;top=0;left=0;bottom=0;right=0;fontSize=25;" parent="gzeoQ_sDqy0WENIaZlR--8" vertex="1">
          <mxGeometry width="250" height="40" as="geometry" />
        </mxCell>
        <mxCell id="gzeoQ_sDqy0WENIaZlR--10" value="1 byte(8 bits)" style="shape=partialRectangle;html=1;whiteSpace=wrap;connectable=0;overflow=hidden;fillColor=none;top=0;left=0;bottom=0;right=0;fontSize=25;" parent="gzeoQ_sDqy0WENIaZlR--8" vertex="1">
          <mxGeometry x="250" width="200" height="40" as="geometry" />
        </mxCell>
        <mxCell id="gzeoQ_sDqy0WENIaZlR--11" value="-2^7 ~ 2^7 - 1" style="shape=partialRectangle;html=1;whiteSpace=wrap;connectable=0;overflow=hidden;fillColor=none;top=0;left=0;bottom=0;right=0;fontSize=25;" parent="gzeoQ_sDqy0WENIaZlR--8" vertex="1">
          <mxGeometry x="450" width="420" height="40" as="geometry" />
        </mxCell>
        <mxCell id="gzeoQ_sDqy0WENIaZlR--12" value="" style="shape=partialRectangle;html=1;whiteSpace=wrap;collapsible=0;dropTarget=0;pointerEvents=0;fillColor=none;top=0;left=0;bottom=0;right=0;points=[[0,0.5],[1,0.5]];portConstraint=eastwest;fontSize=25;" parent="gzeoQ_sDqy0WENIaZlR--3" vertex="1">
          <mxGeometry y="80" width="870" height="40" as="geometry" />
        </mxCell>
        <mxCell id="gzeoQ_sDqy0WENIaZlR--13" value="short" style="shape=partialRectangle;html=1;whiteSpace=wrap;connectable=0;overflow=hidden;fillColor=none;top=0;left=0;bottom=0;right=0;fontSize=25;" parent="gzeoQ_sDqy0WENIaZlR--12" vertex="1">
          <mxGeometry width="250" height="40" as="geometry" />
        </mxCell>
        <mxCell id="gzeoQ_sDqy0WENIaZlR--14" value="2 bytes" style="shape=partialRectangle;html=1;whiteSpace=wrap;connectable=0;overflow=hidden;fillColor=none;top=0;left=0;bottom=0;right=0;fontSize=25;" parent="gzeoQ_sDqy0WENIaZlR--12" vertex="1">
          <mxGeometry x="250" width="200" height="40" as="geometry" />
        </mxCell>
        <mxCell id="gzeoQ_sDqy0WENIaZlR--15" value="&lt;span&gt;-2^15 ~ 2^15 - 1&lt;/span&gt;" style="shape=partialRectangle;html=1;whiteSpace=wrap;connectable=0;overflow=hidden;fillColor=none;top=0;left=0;bottom=0;right=0;fontSize=25;" parent="gzeoQ_sDqy0WENIaZlR--12" vertex="1">
          <mxGeometry x="450" width="420" height="40" as="geometry" />
        </mxCell>
        <mxCell id="gzeoQ_sDqy0WENIaZlR--16" value="" style="shape=partialRectangle;html=1;whiteSpace=wrap;collapsible=0;dropTarget=0;pointerEvents=0;fillColor=none;top=0;left=0;bottom=0;right=0;points=[[0,0.5],[1,0.5]];portConstraint=eastwest;fontSize=25;" parent="gzeoQ_sDqy0WENIaZlR--3" vertex="1">
          <mxGeometry y="120" width="870" height="40" as="geometry" />
        </mxCell>
        <mxCell id="gzeoQ_sDqy0WENIaZlR--17" value="int" style="shape=partialRectangle;html=1;whiteSpace=wrap;connectable=0;overflow=hidden;fillColor=none;top=0;left=0;bottom=0;right=0;fontSize=25;" parent="gzeoQ_sDqy0WENIaZlR--16" vertex="1">
          <mxGeometry width="250" height="40" as="geometry" />
        </mxCell>
        <mxCell id="gzeoQ_sDqy0WENIaZlR--18" value="4 bytes" style="shape=partialRectangle;html=1;whiteSpace=wrap;connectable=0;overflow=hidden;fillColor=none;top=0;left=0;bottom=0;right=0;fontSize=25;" parent="gzeoQ_sDqy0WENIaZlR--16" vertex="1">
          <mxGeometry x="250" width="200" height="40" as="geometry" />
        </mxCell>
        <mxCell id="gzeoQ_sDqy0WENIaZlR--19" value="&lt;span&gt;-2^31 ~ 2^31 - 1&lt;/span&gt;" style="shape=partialRectangle;html=1;whiteSpace=wrap;connectable=0;overflow=hidden;fillColor=none;top=0;left=0;bottom=0;right=0;fontSize=25;" parent="gzeoQ_sDqy0WENIaZlR--16" vertex="1">
          <mxGeometry x="450" width="420" height="40" as="geometry" />
        </mxCell>
        <mxCell id="gzeoQ_sDqy0WENIaZlR--20" value="" style="shape=partialRectangle;html=1;whiteSpace=wrap;collapsible=0;dropTarget=0;pointerEvents=0;fillColor=none;top=0;left=0;bottom=0;right=0;points=[[0,0.5],[1,0.5]];portConstraint=eastwest;fontSize=25;" parent="gzeoQ_sDqy0WENIaZlR--3" vertex="1">
          <mxGeometry y="160" width="870" height="40" as="geometry" />
        </mxCell>
        <mxCell id="gzeoQ_sDqy0WENIaZlR--21" value="long" style="shape=partialRectangle;html=1;whiteSpace=wrap;connectable=0;overflow=hidden;fillColor=none;top=0;left=0;bottom=0;right=0;fontSize=25;" parent="gzeoQ_sDqy0WENIaZlR--20" vertex="1">
          <mxGeometry width="250" height="40" as="geometry" />
        </mxCell>
        <mxCell id="gzeoQ_sDqy0WENIaZlR--22" value="8 bytes" style="shape=partialRectangle;html=1;whiteSpace=wrap;connectable=0;overflow=hidden;fillColor=none;top=0;left=0;bottom=0;right=0;fontSize=25;" parent="gzeoQ_sDqy0WENIaZlR--20" vertex="1">
          <mxGeometry x="250" width="200" height="40" as="geometry" />
        </mxCell>
        <mxCell id="gzeoQ_sDqy0WENIaZlR--23" value="&lt;span&gt;-2^63 ~ 2^63 - 1&lt;/span&gt;" style="shape=partialRectangle;html=1;whiteSpace=wrap;connectable=0;overflow=hidden;fillColor=none;top=0;left=0;bottom=0;right=0;fontSize=25;" parent="gzeoQ_sDqy0WENIaZlR--20" vertex="1">
          <mxGeometry x="450" width="420" height="40" as="geometry" />
        </mxCell>
        <mxCell id="gzeoQ_sDqy0WENIaZlR--24" value="" style="shape=partialRectangle;html=1;whiteSpace=wrap;collapsible=0;dropTarget=0;pointerEvents=0;fillColor=none;top=0;left=0;bottom=0;right=0;points=[[0,0.5],[1,0.5]];portConstraint=eastwest;fontSize=25;" parent="gzeoQ_sDqy0WENIaZlR--3" vertex="1">
          <mxGeometry y="200" width="870" height="40" as="geometry" />
        </mxCell>
        <mxCell id="gzeoQ_sDqy0WENIaZlR--25" value="float" style="shape=partialRectangle;html=1;whiteSpace=wrap;connectable=0;overflow=hidden;fillColor=none;top=0;left=0;bottom=0;right=0;fontSize=25;" parent="gzeoQ_sDqy0WENIaZlR--24" vertex="1">
          <mxGeometry width="250" height="40" as="geometry" />
        </mxCell>
        <mxCell id="gzeoQ_sDqy0WENIaZlR--26" value="4 bytes" style="shape=partialRectangle;html=1;whiteSpace=wrap;connectable=0;overflow=hidden;fillColor=none;top=0;left=0;bottom=0;right=0;fontSize=25;" parent="gzeoQ_sDqy0WENIaZlR--24" vertex="1">
          <mxGeometry x="250" width="200" height="40" as="geometry" />
        </mxCell>
        <mxCell id="gzeoQ_sDqy0WENIaZlR--27" value="&lt;span&gt;3.4 * 10^-38 ~ 3.4 * 10^38&lt;/span&gt;" style="shape=partialRectangle;html=1;whiteSpace=wrap;connectable=0;overflow=hidden;fillColor=none;top=0;left=0;bottom=0;right=0;fontSize=25;" parent="gzeoQ_sDqy0WENIaZlR--24" vertex="1">
          <mxGeometry x="450" width="420" height="40" as="geometry" />
        </mxCell>
        <mxCell id="gzeoQ_sDqy0WENIaZlR--28" value="" style="shape=partialRectangle;html=1;whiteSpace=wrap;collapsible=0;dropTarget=0;pointerEvents=0;fillColor=none;top=0;left=0;bottom=0;right=0;points=[[0,0.5],[1,0.5]];portConstraint=eastwest;fontSize=25;" parent="gzeoQ_sDqy0WENIaZlR--3" vertex="1">
          <mxGeometry y="240" width="870" height="40" as="geometry" />
        </mxCell>
        <mxCell id="gzeoQ_sDqy0WENIaZlR--29" value="double" style="shape=partialRectangle;html=1;whiteSpace=wrap;connectable=0;overflow=hidden;fillColor=none;top=0;left=0;bottom=0;right=0;fontSize=25;" parent="gzeoQ_sDqy0WENIaZlR--28" vertex="1">
          <mxGeometry width="250" height="40" as="geometry" />
        </mxCell>
        <mxCell id="gzeoQ_sDqy0WENIaZlR--30" value="8 bytes" style="shape=partialRectangle;html=1;whiteSpace=wrap;connectable=0;overflow=hidden;fillColor=none;top=0;left=0;bottom=0;right=0;fontSize=25;" parent="gzeoQ_sDqy0WENIaZlR--28" vertex="1">
          <mxGeometry x="250" width="200" height="40" as="geometry" />
        </mxCell>
        <mxCell id="gzeoQ_sDqy0WENIaZlR--31" value="&lt;span&gt;1.7 * 10^-308 ~ 1.7 * 10^308&lt;/span&gt;" style="shape=partialRectangle;html=1;whiteSpace=wrap;connectable=0;overflow=hidden;fillColor=none;top=0;left=0;bottom=0;right=0;fontSize=25;" parent="gzeoQ_sDqy0WENIaZlR--28" vertex="1">
          <mxGeometry x="450" width="420" height="40" as="geometry" />
        </mxCell>
        <mxCell id="gzeoQ_sDqy0WENIaZlR--32" value="" style="shape=partialRectangle;html=1;whiteSpace=wrap;collapsible=0;dropTarget=0;pointerEvents=0;fillColor=none;top=0;left=0;bottom=0;right=0;points=[[0,0.5],[1,0.5]];portConstraint=eastwest;fontSize=25;" parent="gzeoQ_sDqy0WENIaZlR--3" vertex="1">
          <mxGeometry y="280" width="870" height="40" as="geometry" />
        </mxCell>
        <mxCell id="gzeoQ_sDqy0WENIaZlR--33" value="char" style="shape=partialRectangle;html=1;whiteSpace=wrap;connectable=0;overflow=hidden;fillColor=none;top=0;left=0;bottom=0;right=0;fontSize=25;" parent="gzeoQ_sDqy0WENIaZlR--32" vertex="1">
          <mxGeometry width="250" height="40" as="geometry" />
        </mxCell>
        <mxCell id="gzeoQ_sDqy0WENIaZlR--34" value="2 bytes" style="shape=partialRectangle;html=1;whiteSpace=wrap;connectable=0;overflow=hidden;fillColor=none;top=0;left=0;bottom=0;right=0;fontSize=25;" parent="gzeoQ_sDqy0WENIaZlR--32" vertex="1">
          <mxGeometry x="250" width="200" height="40" as="geometry" />
        </mxCell>
        <mxCell id="gzeoQ_sDqy0WENIaZlR--35" value="&lt;span&gt;字符长度：0 ~ 2^16 - 1&lt;/span&gt;" style="shape=partialRectangle;html=1;whiteSpace=wrap;connectable=0;overflow=hidden;fillColor=none;top=0;left=0;bottom=0;right=0;fontSize=25;" parent="gzeoQ_sDqy0WENIaZlR--32" vertex="1">
          <mxGeometry x="450" width="420" height="40" as="geometry" />
        </mxCell>
        <mxCell id="gzeoQ_sDqy0WENIaZlR--36" value="" style="shape=partialRectangle;html=1;whiteSpace=wrap;collapsible=0;dropTarget=0;pointerEvents=0;fillColor=none;top=0;left=0;bottom=0;right=0;points=[[0,0.5],[1,0.5]];portConstraint=eastwest;fontSize=25;" parent="gzeoQ_sDqy0WENIaZlR--3" vertex="1">
          <mxGeometry y="320" width="870" height="40" as="geometry" />
        </mxCell>
        <mxCell id="gzeoQ_sDqy0WENIaZlR--37" value="boolean" style="shape=partialRectangle;html=1;whiteSpace=wrap;connectable=0;overflow=hidden;fillColor=none;top=0;left=0;bottom=0;right=0;fontSize=25;" parent="gzeoQ_sDqy0WENIaZlR--36" vertex="1">
          <mxGeometry width="250" height="40" as="geometry" />
        </mxCell>
        <mxCell id="gzeoQ_sDqy0WENIaZlR--38" value="1 byte" style="shape=partialRectangle;html=1;whiteSpace=wrap;connectable=0;overflow=hidden;fillColor=none;top=0;left=0;bottom=0;right=0;fontSize=25;" parent="gzeoQ_sDqy0WENIaZlR--36" vertex="1">
          <mxGeometry x="250" width="200" height="40" as="geometry" />
        </mxCell>
        <mxCell id="gzeoQ_sDqy0WENIaZlR--39" value="&lt;span&gt;取值范围：true，false&amp;nbsp;&lt;/span&gt;" style="shape=partialRectangle;html=1;whiteSpace=wrap;connectable=0;overflow=hidden;fillColor=none;top=0;left=0;bottom=0;right=0;fontSize=25;" parent="gzeoQ_sDqy0WENIaZlR--36" vertex="1">
          <mxGeometry x="450" width="420" height="40" as="geometry" />
        </mxCell>
        <mxCell id="YrCEO7O0D5PKRNsaaQR6-1" value="[I@4dd8dc3" style="text;strokeColor=#36393d;fillColor=#f9f7ed;html=1;fontSize=33;fontStyle=1;verticalAlign=middle;align=center;" parent="1" vertex="1">
          <mxGeometry y="980" width="280" height="105" as="geometry" />
        </mxCell>
      </root>
    </mxGraphModel>
  </diagram>
  <diagram id="zApLcBOOqYPq7rKSkcTn" name="第 2 页">
    <mxGraphModel dx="1826" dy="864" grid="0" gridSize="10" guides="1" tooltips="1" connect="1" arrows="1" fold="1" page="0" pageScale="1" pageWidth="827" pageHeight="1169" math="0" shadow="0">
      <root>
        <mxCell id="0" />
        <mxCell id="1" parent="0" />
        <mxCell id="hbWFClE__J56YjyjS0c3-1" value="" style="rounded=1;whiteSpace=wrap;html=1;strokeWidth=2;fillWeight=4;hachureGap=8;hachureAngle=45;fillColor=#1ba1e2;sketch=1;labelBackgroundColor=#ffffff;" vertex="1" parent="1">
          <mxGeometry x="-257" y="349" width="1550" height="60" as="geometry" />
        </mxCell>
        <mxCell id="hbWFClE__J56YjyjS0c3-2" value="专题二——《面向对象》" style="text;strokeColor=none;fillColor=none;html=1;fontSize=40;fontStyle=1;verticalAlign=middle;align=center;labelBackgroundColor=#ffffff;" vertex="1" parent="1">
          <mxGeometry x="-267" y="279" width="471" height="40" as="geometry" />
        </mxCell>
      </root>
    </mxGraphModel>
  </diagram>
  <diagram id="GKC9H9LIkvb970Yt7fZD" name="第 3 页">
    <mxGraphModel dx="2065" dy="1264" grid="0" gridSize="10" guides="1" tooltips="1" connect="1" arrows="1" fold="1" page="0" pageScale="1" pageWidth="827" pageHeight="1169" math="0" shadow="0">
      <root>
        <mxCell id="0" />
        <mxCell id="1" parent="0" />
        <mxCell id="dc84mpNIXNcO1e2Viqw_-1" value="" style="rounded=1;whiteSpace=wrap;html=1;strokeWidth=2;fillWeight=4;hachureGap=8;hachureAngle=45;fillColor=#1ba1e2;sketch=1;labelBackgroundColor=#ffffff;" parent="1" vertex="1">
          <mxGeometry x="-339" y="-85" width="1550" height="60" as="geometry" />
        </mxCell>
        <mxCell id="dc84mpNIXNcO1e2Viqw_-2" value="专题三——《API—常用类》" style="text;strokeColor=none;fillColor=none;html=1;fontSize=40;fontStyle=1;verticalAlign=middle;align=center;labelBackgroundColor=#ffffff;" parent="1" vertex="1">
          <mxGeometry x="-349" y="-155" width="540" height="60" as="geometry" />
        </mxCell>
        <mxCell id="8LMI8b_ivUfQCbqz1Wbl-1" value="" style="group;fillColor=#d5e8d4;strokeColor=#82b366;strokeWidth=3;shadow=0;" parent="1" vertex="1" connectable="0">
          <mxGeometry x="-327" y="199" width="1564" height="813" as="geometry" />
        </mxCell>
        <mxCell id="8LMI8b_ivUfQCbqz1Wbl-2" value="" style="group;fillColor=#f8cecc;strokeColor=#b85450;rounded=1;strokeWidth=2;shadow=1;" parent="1" vertex="1" connectable="0">
          <mxGeometry x="-310" y="216" width="622" height="452" as="geometry" />
        </mxCell>
        <mxCell id="8LMI8b_ivUfQCbqz1Wbl-3" value="" style="group;fillColor=#fff2cc;strokeColor=#d6b656;rounded=1;strokeWidth=2;shadow=1;" parent="1" vertex="1" connectable="0">
          <mxGeometry x="356" y="216" width="855" height="453" as="geometry" />
        </mxCell>
        <mxCell id="8LMI8b_ivUfQCbqz1Wbl-4" value="" style="group;fillColor=#dae8fc;strokeColor=#6c8ebf;rounded=0;strokeWidth=2;shadow=1;arcSize=13;" parent="1" vertex="1" connectable="0">
          <mxGeometry x="-310" y="685" width="1523" height="307" as="geometry" />
        </mxCell>
        <mxCell id="8LMI8b_ivUfQCbqz1Wbl-5" value="Stack（栈）" style="text;strokeColor=none;fillColor=none;html=1;fontSize=29;fontStyle=1;verticalAlign=middle;align=center;labelBackgroundColor=#FFFF88;" parent="1" vertex="1">
          <mxGeometry x="-310" y="202" width="190" height="56" as="geometry" />
        </mxCell>
        <mxCell id="8LMI8b_ivUfQCbqz1Wbl-6" value="Heap（堆）" style="text;strokeColor=none;fillColor=none;html=1;fontSize=29;fontStyle=1;verticalAlign=middle;align=center;labelBackgroundColor=#FFFF88;" parent="1" vertex="1">
          <mxGeometry x="368" y="202" width="190" height="56" as="geometry" />
        </mxCell>
        <mxCell id="8LMI8b_ivUfQCbqz1Wbl-7" value="Method Area（方法区）" style="text;strokeColor=none;fillColor=none;html=1;fontSize=29;fontStyle=1;verticalAlign=middle;align=center;labelBackgroundColor=#FFFF88;" parent="1" vertex="1">
          <mxGeometry x="-307" y="679" width="347" height="56" as="geometry" />
        </mxCell>
        <mxCell id="8LMI8b_ivUfQCbqz1Wbl-8" value="" style="group;fillColor=#fff2cc;strokeColor=#d6b656;rounded=0;strokeWidth=2;shadow=1;verticalAlign=top;align=left;fontSize=25;fontStyle=1" parent="1" vertex="1" connectable="0">
          <mxGeometry x="-291" y="418" width="582" height="228" as="geometry" />
        </mxCell>
        <mxCell id="8LMI8b_ivUfQCbqz1Wbl-10" value="" style="group;fillColor=none;strokeColor=#000000;rounded=0;strokeWidth=3;shadow=1;" parent="1" vertex="1" connectable="0">
          <mxGeometry x="-274" y="459" width="547" height="169" as="geometry" />
        </mxCell>
        <mxCell id="8LMI8b_ivUfQCbqz1Wbl-11" value="main(String[] args)&amp;nbsp;" style="text;strokeColor=none;fillColor=none;html=1;fontSize=25;fontStyle=1;verticalAlign=middle;align=left;labelBackgroundColor=none;" parent="1" vertex="1">
          <mxGeometry x="-276" y="419" width="234" height="36" as="geometry" />
        </mxCell>
        <mxCell id="8LMI8b_ivUfQCbqz1Wbl-12" value="String str =&amp;gt; &lt;span&gt;&lt;font style=&quot;color: rgb(255, 128, 0);&quot;&gt;0x0011&lt;/font&gt;&lt;/span&gt;" style="text;strokeColor=none;fillColor=none;html=1;fontSize=25;fontStyle=1;verticalAlign=middle;align=left;labelBackgroundColor=none;" parent="1" vertex="1">
          <mxGeometry x="-245" y="481" width="246" height="36" as="geometry" />
        </mxCell>
        <mxCell id="8LMI8b_ivUfQCbqz1Wbl-13" value="str =&amp;gt; &lt;font style=&quot;color: rgb(127, 0, 255);&quot;&gt;0x0022&lt;/font&gt;" style="text;strokeColor=none;fillColor=none;html=1;fontSize=25;fontStyle=1;verticalAlign=middle;align=left;labelBackgroundColor=none;" parent="1" vertex="1">
          <mxGeometry x="-245" y="530" width="170" height="36" as="geometry" />
        </mxCell>
        <mxCell id="8LMI8b_ivUfQCbqz1Wbl-14" value="str =&amp;gt; &lt;font style=&quot;color: rgb(74, 185, 98);&quot;&gt;0x0099&lt;/font&gt;" style="text;strokeColor=none;fillColor=none;html=1;fontSize=25;fontStyle=1;verticalAlign=middle;align=left;labelBackgroundColor=none;" parent="1" vertex="1">
          <mxGeometry x="-245" y="576" width="170" height="36" as="geometry" />
        </mxCell>
        <mxCell id="8LMI8b_ivUfQCbqz1Wbl-15" value="&lt;div&gt;&lt;br&gt;&lt;/div&gt;&lt;div&gt;//仅作演示用，无实际意义&lt;/div&gt;&lt;div&gt;public static void main(String[] args) {&lt;/div&gt;&lt;div&gt;&amp;nbsp; &amp;nbsp; String str = new String(&quot;kamaCoder&quot;);&lt;/div&gt;&lt;div&gt;&amp;nbsp; &amp;nbsp; str = new String(&quot;666&quot;);&lt;/div&gt;&lt;div&gt;&amp;nbsp; &amp;nbsp; str = &quot;Cyan&quot;;&lt;/div&gt;&lt;div&gt;}&lt;/div&gt;&lt;div&gt;&lt;br&gt;&lt;/div&gt;" style="text;strokeColor=#666666;fillColor=#f5f5f5;html=1;fontSize=20;fontStyle=0;verticalAlign=middle;align=left;labelBackgroundColor=none;dashed=1;strokeWidth=2;fontColor=#333333;" parent="1" vertex="1">
          <mxGeometry x="-286" y="256" width="423" height="152" as="geometry" />
        </mxCell>
        <mxCell id="8LMI8b_ivUfQCbqz1Wbl-16" value="" style="group;fillColor=#dae8fc;strokeColor=#6c8ebf;rounded=0;strokeWidth=2;shadow=1;verticalAlign=top;align=left;fontSize=25;fontStyle=1" parent="1" vertex="1" connectable="0">
          <mxGeometry x="369" y="272" width="332" height="98" as="geometry" />
        </mxCell>
        <mxCell id="8LMI8b_ivUfQCbqz1Wbl-17" value="&lt;span&gt;&lt;font style=&quot;color: rgb(255, 128, 0);&quot;&gt;0x0011&lt;/font&gt;&lt;/span&gt;" style="text;strokeColor=none;fillColor=none;html=1;fontSize=25;fontStyle=1;verticalAlign=middle;align=left;labelBackgroundColor=none;" parent="1" vertex="1">
          <mxGeometry x="390" y="269" width="98" height="36" as="geometry" />
        </mxCell>
        <mxCell id="8LMI8b_ivUfQCbqz1Wbl-18" value="&lt;font style=&quot;color: rgb(0, 0, 0);&quot;&gt;value =&amp;gt; &lt;/font&gt;&lt;font style=&quot;color: rgb(255, 126, 250);&quot;&gt;0x0088&lt;/font&gt;" style="text;strokeColor=none;fillColor=none;html=1;fontSize=25;fontStyle=1;verticalAlign=middle;align=left;labelBackgroundColor=none;" parent="1" vertex="1">
          <mxGeometry x="390" y="311" width="198" height="36" as="geometry" />
        </mxCell>
        <mxCell id="8LMI8b_ivUfQCbqz1Wbl-19" value="" style="group;fillColor=#dae8fc;strokeColor=#6c8ebf;rounded=0;strokeWidth=2;shadow=1;verticalAlign=top;align=left;fontSize=25;fontStyle=1" parent="1" vertex="1" connectable="0">
          <mxGeometry x="370" y="412" width="333" height="93" as="geometry" />
        </mxCell>
        <mxCell id="8LMI8b_ivUfQCbqz1Wbl-20" value="&lt;span&gt;&lt;font style=&quot;color: rgb(127, 0, 255);&quot;&gt;0x0022&lt;/font&gt;&lt;/span&gt;" style="text;strokeColor=none;fillColor=none;html=1;fontSize=25;fontStyle=1;verticalAlign=middle;align=left;labelBackgroundColor=none;" parent="1" vertex="1">
          <mxGeometry x="390" y="408" width="98" height="36" as="geometry" />
        </mxCell>
        <mxCell id="8LMI8b_ivUfQCbqz1Wbl-21" value="&lt;font style=&quot;color: rgb(0, 0, 0);&quot;&gt;value =&amp;gt; &lt;/font&gt;&lt;font style=&quot;color: rgb(213, 56, 56);&quot;&gt;0x0077&lt;/font&gt;" style="text;strokeColor=none;fillColor=none;html=1;fontSize=25;fontStyle=1;verticalAlign=middle;align=left;labelBackgroundColor=none;" parent="1" vertex="1">
          <mxGeometry x="390" y="452" width="198" height="36" as="geometry" />
        </mxCell>
        <mxCell id="8LMI8b_ivUfQCbqz1Wbl-22" value="" style="group;fillColor=#b0e3e6;strokeColor=#0e8088;rounded=0;strokeWidth=2;shadow=1;" parent="1" vertex="1" connectable="0">
          <mxGeometry x="-284" y="755" width="435" height="204" as="geometry" />
        </mxCell>
        <mxCell id="8LMI8b_ivUfQCbqz1Wbl-23" value="包含main函数 的字节码文件" style="text;strokeColor=none;fillColor=none;html=1;fontSize=25;fontStyle=1;verticalAlign=middle;align=left;labelBackgroundColor=none;" parent="1" vertex="1">
          <mxGeometry x="-276" y="757" width="362" height="43" as="geometry" />
        </mxCell>
        <mxCell id="8LMI8b_ivUfQCbqz1Wbl-24" value="// 此处实质为 类元数据" style="text;strokeColor=none;fillColor=none;html=1;fontSize=25;fontStyle=0;verticalAlign=top;align=left;labelBackgroundColor=default;" parent="1" vertex="1">
          <mxGeometry x="-219" y="840" width="269" height="43" as="geometry" />
        </mxCell>
        <mxCell id="8LMI8b_ivUfQCbqz1Wbl-26" value="" style="group;fillColor=#d5e8d4;strokeColor=#82b366;rounded=0;strokeWidth=2;shadow=1;verticalAlign=top;align=left;fontSize=25;fontStyle=1" parent="1" vertex="1" connectable="0">
          <mxGeometry x="213" y="706" width="618" height="253" as="geometry" />
        </mxCell>
        <mxCell id="8LMI8b_ivUfQCbqz1Wbl-27" value="字符串常量池(JDK7.0 之后也在堆中）" style="text;strokeColor=none;fillColor=none;html=1;fontSize=27;fontStyle=1;verticalAlign=middle;align=center;labelBackgroundColor=#FBC8FF;" parent="1" vertex="1">
          <mxGeometry x="216" y="704" width="482" height="56" as="geometry" />
        </mxCell>
        <mxCell id="8LMI8b_ivUfQCbqz1Wbl-28" value="" style="shape=table;startSize=0;container=1;collapsible=0;childLayout=tableLayout;fontSize=22;" parent="1" vertex="1">
          <mxGeometry x="230" y="767" width="429" height="161" as="geometry" />
        </mxCell>
        <mxCell id="8LMI8b_ivUfQCbqz1Wbl-29" value="" style="shape=tableRow;horizontal=0;startSize=0;swimlaneHead=0;swimlaneBody=0;strokeColor=inherit;top=0;left=0;bottom=0;right=0;collapsible=0;dropTarget=0;fillColor=none;points=[[0,0.5],[1,0.5]];portConstraint=eastwest;fontSize=22;" parent="8LMI8b_ivUfQCbqz1Wbl-28" vertex="1">
          <mxGeometry width="429" height="40" as="geometry" />
        </mxCell>
        <mxCell id="8LMI8b_ivUfQCbqz1Wbl-30" value="&quot;kamaCoder&quot;" style="shape=partialRectangle;html=1;whiteSpace=wrap;connectable=0;strokeColor=inherit;overflow=hidden;fillColor=none;top=0;left=0;bottom=0;right=0;pointerEvents=1;fontSize=22;" parent="8LMI8b_ivUfQCbqz1Wbl-29" vertex="1">
          <mxGeometry width="215" height="40" as="geometry">
            <mxRectangle width="215" height="40" as="alternateBounds" />
          </mxGeometry>
        </mxCell>
        <mxCell id="8LMI8b_ivUfQCbqz1Wbl-31" value="&lt;span style=&quot;color: rgb(255, 126, 250); font-size: 25px; font-weight: 700; text-align: left; text-wrap-mode: nowrap;&quot;&gt;0x0088&lt;/span&gt;" style="shape=partialRectangle;html=1;whiteSpace=wrap;connectable=0;strokeColor=inherit;overflow=hidden;fillColor=none;top=0;left=0;bottom=0;right=0;pointerEvents=1;fontSize=22;" parent="8LMI8b_ivUfQCbqz1Wbl-29" vertex="1">
          <mxGeometry x="215" width="214" height="40" as="geometry">
            <mxRectangle width="214" height="40" as="alternateBounds" />
          </mxGeometry>
        </mxCell>
        <mxCell id="8LMI8b_ivUfQCbqz1Wbl-32" value="" style="shape=tableRow;horizontal=0;startSize=0;swimlaneHead=0;swimlaneBody=0;strokeColor=inherit;top=0;left=0;bottom=0;right=0;collapsible=0;dropTarget=0;fillColor=none;points=[[0,0.5],[1,0.5]];portConstraint=eastwest;fontSize=22;" parent="8LMI8b_ivUfQCbqz1Wbl-28" vertex="1">
          <mxGeometry y="40" width="429" height="41" as="geometry" />
        </mxCell>
        <mxCell id="8LMI8b_ivUfQCbqz1Wbl-33" value="&quot;666&quot;" style="shape=partialRectangle;html=1;whiteSpace=wrap;connectable=0;strokeColor=inherit;overflow=hidden;fillColor=none;top=0;left=0;bottom=0;right=0;pointerEvents=1;fontSize=22;" parent="8LMI8b_ivUfQCbqz1Wbl-32" vertex="1">
          <mxGeometry width="215" height="41" as="geometry">
            <mxRectangle width="215" height="41" as="alternateBounds" />
          </mxGeometry>
        </mxCell>
        <mxCell id="8LMI8b_ivUfQCbqz1Wbl-34" value="&lt;span style=&quot;color: rgb(213, 56, 56); font-size: 25px; font-weight: 700; text-align: left; text-wrap-mode: nowrap;&quot;&gt;0x0077&lt;/span&gt;" style="shape=partialRectangle;html=1;whiteSpace=wrap;connectable=0;strokeColor=inherit;overflow=hidden;fillColor=none;top=0;left=0;bottom=0;right=0;pointerEvents=1;fontSize=22;" parent="8LMI8b_ivUfQCbqz1Wbl-32" vertex="1">
          <mxGeometry x="215" width="214" height="41" as="geometry">
            <mxRectangle width="214" height="41" as="alternateBounds" />
          </mxGeometry>
        </mxCell>
        <mxCell id="8LMI8b_ivUfQCbqz1Wbl-35" value="" style="shape=tableRow;horizontal=0;startSize=0;swimlaneHead=0;swimlaneBody=0;strokeColor=inherit;top=0;left=0;bottom=0;right=0;collapsible=0;dropTarget=0;fillColor=none;points=[[0,0.5],[1,0.5]];portConstraint=eastwest;fontSize=22;" parent="8LMI8b_ivUfQCbqz1Wbl-28" vertex="1">
          <mxGeometry y="81" width="429" height="40" as="geometry" />
        </mxCell>
        <mxCell id="8LMI8b_ivUfQCbqz1Wbl-36" value="&quot;Cyan&quot;" style="shape=partialRectangle;html=1;whiteSpace=wrap;connectable=0;strokeColor=inherit;overflow=hidden;fillColor=none;top=0;left=0;bottom=0;right=0;pointerEvents=1;fontSize=22;" parent="8LMI8b_ivUfQCbqz1Wbl-35" vertex="1">
          <mxGeometry width="215" height="40" as="geometry">
            <mxRectangle width="215" height="40" as="alternateBounds" />
          </mxGeometry>
        </mxCell>
        <mxCell id="8LMI8b_ivUfQCbqz1Wbl-37" value="&lt;span style=&quot;color: rgb(74, 185, 98); font-size: 25px; font-weight: 700; text-align: left; text-wrap-mode: nowrap;&quot;&gt;0x0099&lt;/span&gt;" style="shape=partialRectangle;html=1;whiteSpace=wrap;connectable=0;strokeColor=inherit;overflow=hidden;fillColor=none;top=0;left=0;bottom=0;right=0;pointerEvents=1;fontSize=22;" parent="8LMI8b_ivUfQCbqz1Wbl-35" vertex="1">
          <mxGeometry x="215" width="214" height="40" as="geometry">
            <mxRectangle width="214" height="40" as="alternateBounds" />
          </mxGeometry>
        </mxCell>
        <mxCell id="8LMI8b_ivUfQCbqz1Wbl-38" value="" style="shape=tableRow;horizontal=0;startSize=0;swimlaneHead=0;swimlaneBody=0;strokeColor=inherit;top=0;left=0;bottom=0;right=0;collapsible=0;dropTarget=0;fillColor=none;points=[[0,0.5],[1,0.5]];portConstraint=eastwest;fontSize=22;" parent="8LMI8b_ivUfQCbqz1Wbl-28" vertex="1">
          <mxGeometry y="121" width="429" height="40" as="geometry" />
        </mxCell>
        <mxCell id="8LMI8b_ivUfQCbqz1Wbl-39" value="" style="shape=partialRectangle;html=1;whiteSpace=wrap;connectable=0;strokeColor=inherit;overflow=hidden;fillColor=none;top=0;left=0;bottom=0;right=0;pointerEvents=1;fontSize=22;" parent="8LMI8b_ivUfQCbqz1Wbl-38" vertex="1">
          <mxGeometry width="215" height="40" as="geometry">
            <mxRectangle width="215" height="40" as="alternateBounds" />
          </mxGeometry>
        </mxCell>
        <mxCell id="8LMI8b_ivUfQCbqz1Wbl-40" value="" style="shape=partialRectangle;html=1;whiteSpace=wrap;connectable=0;strokeColor=inherit;overflow=hidden;fillColor=none;top=0;left=0;bottom=0;right=0;pointerEvents=1;fontSize=22;" parent="8LMI8b_ivUfQCbqz1Wbl-38" vertex="1">
          <mxGeometry x="215" width="214" height="40" as="geometry">
            <mxRectangle width="214" height="40" as="alternateBounds" />
          </mxGeometry>
        </mxCell>
        <mxCell id="8LMI8b_ivUfQCbqz1Wbl-41" style="edgeStyle=orthogonalEdgeStyle;rounded=0;orthogonalLoop=1;jettySize=auto;html=1;entryX=0;entryY=0.5;entryDx=0;entryDy=0;curved=1;strokeWidth=3;fillColor=#fad7ac;strokeColor=#FF9005;" parent="1" source="8LMI8b_ivUfQCbqz1Wbl-12" target="8LMI8b_ivUfQCbqz1Wbl-17" edge="1">
          <mxGeometry relative="1" as="geometry" />
        </mxCell>
        <mxCell id="8LMI8b_ivUfQCbqz1Wbl-43" value="" style="group;fillColor=#e1d5e7;strokeColor=#9673a6;rounded=0;strokeWidth=2;shadow=1;verticalAlign=top;align=left;fontSize=25;fontStyle=1" parent="1" vertex="1" connectable="0">
          <mxGeometry x="880" y="253.5" width="296" height="116" as="geometry" />
        </mxCell>
        <mxCell id="8LMI8b_ivUfQCbqz1Wbl-44" value="&lt;span style=&quot;color: rgb(255, 126, 250);&quot;&gt;0x0088&lt;/span&gt;" style="text;strokeColor=none;fillColor=none;html=1;fontSize=25;fontStyle=1;verticalAlign=middle;align=left;labelBackgroundColor=none;" parent="1" vertex="1">
          <mxGeometry x="883" y="253.5" width="98" height="36" as="geometry" />
        </mxCell>
        <mxCell id="8LMI8b_ivUfQCbqz1Wbl-81" value="" style="shape=table;startSize=0;container=1;collapsible=0;childLayout=tableLayout;fontSize=22;" parent="1" vertex="1">
          <mxGeometry x="888" y="286.5" width="279" height="68" as="geometry" />
        </mxCell>
        <mxCell id="8LMI8b_ivUfQCbqz1Wbl-82" value="" style="shape=tableRow;horizontal=0;startSize=0;swimlaneHead=0;swimlaneBody=0;strokeColor=inherit;top=0;left=0;bottom=0;right=0;collapsible=0;dropTarget=0;fillColor=none;points=[[0,0.5],[1,0.5]];portConstraint=eastwest;fontSize=22;" parent="8LMI8b_ivUfQCbqz1Wbl-81" vertex="1">
          <mxGeometry width="279" height="34" as="geometry" />
        </mxCell>
        <mxCell id="8LMI8b_ivUfQCbqz1Wbl-83" value="0" style="shape=partialRectangle;html=1;whiteSpace=wrap;connectable=0;strokeColor=inherit;overflow=hidden;fillColor=none;top=0;left=0;bottom=0;right=0;pointerEvents=1;fontSize=22;" parent="8LMI8b_ivUfQCbqz1Wbl-82" vertex="1">
          <mxGeometry width="60" height="34" as="geometry">
            <mxRectangle width="60" height="34" as="alternateBounds" />
          </mxGeometry>
        </mxCell>
        <mxCell id="8LMI8b_ivUfQCbqz1Wbl-84" value="&lt;font&gt;107(&#39;&lt;span style=&quot;text-align: center;&quot;&gt;&lt;font style=&quot;color: rgb(255, 0, 0);&quot;&gt;k&lt;/font&gt;&lt;/span&gt;&#39;&lt;span style=&quot;text-align: center;&quot;&gt;对应的ASCII值)&lt;/span&gt;&lt;/font&gt;" style="shape=partialRectangle;html=1;whiteSpace=wrap;connectable=0;strokeColor=inherit;overflow=hidden;fillColor=none;top=0;left=0;bottom=0;right=0;pointerEvents=1;fontSize=21;align=left;" parent="8LMI8b_ivUfQCbqz1Wbl-82" vertex="1">
          <mxGeometry x="60" width="219" height="34" as="geometry">
            <mxRectangle width="219" height="34" as="alternateBounds" />
          </mxGeometry>
        </mxCell>
        <mxCell id="8LMI8b_ivUfQCbqz1Wbl-85" value="" style="shape=tableRow;horizontal=0;startSize=0;swimlaneHead=0;swimlaneBody=0;strokeColor=inherit;top=0;left=0;bottom=0;right=0;collapsible=0;dropTarget=0;fillColor=none;points=[[0,0.5],[1,0.5]];portConstraint=eastwest;fontSize=22;" parent="8LMI8b_ivUfQCbqz1Wbl-81" vertex="1">
          <mxGeometry y="34" width="279" height="34" as="geometry" />
        </mxCell>
        <mxCell id="8LMI8b_ivUfQCbqz1Wbl-86" value="..." style="shape=partialRectangle;html=1;whiteSpace=wrap;connectable=0;strokeColor=inherit;overflow=hidden;fillColor=none;top=0;left=0;bottom=0;right=0;pointerEvents=1;fontSize=22;fontStyle=1" parent="8LMI8b_ivUfQCbqz1Wbl-85" vertex="1">
          <mxGeometry width="60" height="34" as="geometry">
            <mxRectangle width="60" height="34" as="alternateBounds" />
          </mxGeometry>
        </mxCell>
        <mxCell id="8LMI8b_ivUfQCbqz1Wbl-87" value="..." style="shape=partialRectangle;html=1;whiteSpace=wrap;connectable=0;strokeColor=inherit;overflow=hidden;fillColor=none;top=0;left=0;bottom=0;right=0;pointerEvents=1;fontSize=22;fontStyle=1" parent="8LMI8b_ivUfQCbqz1Wbl-85" vertex="1">
          <mxGeometry x="60" width="219" height="34" as="geometry">
            <mxRectangle width="219" height="34" as="alternateBounds" />
          </mxGeometry>
        </mxCell>
        <mxCell id="8LMI8b_ivUfQCbqz1Wbl-89" style="edgeStyle=orthogonalEdgeStyle;rounded=0;orthogonalLoop=1;jettySize=auto;html=1;entryX=0;entryY=0.5;entryDx=0;entryDy=0;curved=1;strokeColor=#7F00FF;strokeWidth=3;" parent="1" source="8LMI8b_ivUfQCbqz1Wbl-13" target="8LMI8b_ivUfQCbqz1Wbl-20" edge="1">
          <mxGeometry relative="1" as="geometry">
            <Array as="points">
              <mxPoint x="192" y="548" />
              <mxPoint x="192" y="426" />
            </Array>
          </mxGeometry>
        </mxCell>
        <mxCell id="8LMI8b_ivUfQCbqz1Wbl-90" value="" style="group;fillColor=#e1d5e7;strokeColor=#9673a6;rounded=0;strokeWidth=2;shadow=1;verticalAlign=top;align=left;fontSize=25;fontStyle=1" parent="1" vertex="1" connectable="0">
          <mxGeometry x="880" y="412" width="296" height="116" as="geometry" />
        </mxCell>
        <mxCell id="8LMI8b_ivUfQCbqz1Wbl-91" value="&lt;span style=&quot;color: rgb(213, 56, 56);&quot;&gt;0x0077&lt;/span&gt;" style="text;strokeColor=none;fillColor=none;html=1;fontSize=25;fontStyle=1;verticalAlign=middle;align=left;labelBackgroundColor=none;" parent="1" vertex="1">
          <mxGeometry x="883" y="412" width="98" height="36" as="geometry" />
        </mxCell>
        <mxCell id="8LMI8b_ivUfQCbqz1Wbl-92" value="" style="shape=table;startSize=0;container=1;collapsible=0;childLayout=tableLayout;fontSize=22;" parent="1" vertex="1">
          <mxGeometry x="888" y="445" width="279" height="68" as="geometry" />
        </mxCell>
        <mxCell id="8LMI8b_ivUfQCbqz1Wbl-93" value="" style="shape=tableRow;horizontal=0;startSize=0;swimlaneHead=0;swimlaneBody=0;strokeColor=inherit;top=0;left=0;bottom=0;right=0;collapsible=0;dropTarget=0;fillColor=none;points=[[0,0.5],[1,0.5]];portConstraint=eastwest;fontSize=22;" parent="8LMI8b_ivUfQCbqz1Wbl-92" vertex="1">
          <mxGeometry width="279" height="34" as="geometry" />
        </mxCell>
        <mxCell id="8LMI8b_ivUfQCbqz1Wbl-94" value="0" style="shape=partialRectangle;html=1;whiteSpace=wrap;connectable=0;strokeColor=inherit;overflow=hidden;fillColor=none;top=0;left=0;bottom=0;right=0;pointerEvents=1;fontSize=22;" parent="8LMI8b_ivUfQCbqz1Wbl-93" vertex="1">
          <mxGeometry width="60" height="34" as="geometry">
            <mxRectangle width="60" height="34" as="alternateBounds" />
          </mxGeometry>
        </mxCell>
        <mxCell id="8LMI8b_ivUfQCbqz1Wbl-95" value="&lt;font&gt;54(&#39;&lt;span style=&quot;text-align: center;&quot;&gt;&lt;font style=&quot;color: rgb(255, 0, 0);&quot;&gt;6&lt;/font&gt;&lt;/span&gt;&#39;&lt;span style=&quot;text-align: center;&quot;&gt;对应的ASCII值)&lt;/span&gt;&lt;/font&gt;" style="shape=partialRectangle;html=1;whiteSpace=wrap;connectable=0;strokeColor=inherit;overflow=hidden;fillColor=none;top=0;left=0;bottom=0;right=0;pointerEvents=1;fontSize=21;align=left;" parent="8LMI8b_ivUfQCbqz1Wbl-93" vertex="1">
          <mxGeometry x="60" width="219" height="34" as="geometry">
            <mxRectangle width="219" height="34" as="alternateBounds" />
          </mxGeometry>
        </mxCell>
        <mxCell id="8LMI8b_ivUfQCbqz1Wbl-96" value="" style="shape=tableRow;horizontal=0;startSize=0;swimlaneHead=0;swimlaneBody=0;strokeColor=inherit;top=0;left=0;bottom=0;right=0;collapsible=0;dropTarget=0;fillColor=none;points=[[0,0.5],[1,0.5]];portConstraint=eastwest;fontSize=22;" parent="8LMI8b_ivUfQCbqz1Wbl-92" vertex="1">
          <mxGeometry y="34" width="279" height="34" as="geometry" />
        </mxCell>
        <mxCell id="8LMI8b_ivUfQCbqz1Wbl-97" value="..." style="shape=partialRectangle;html=1;whiteSpace=wrap;connectable=0;strokeColor=inherit;overflow=hidden;fillColor=none;top=0;left=0;bottom=0;right=0;pointerEvents=1;fontSize=22;fontStyle=1" parent="8LMI8b_ivUfQCbqz1Wbl-96" vertex="1">
          <mxGeometry width="60" height="34" as="geometry">
            <mxRectangle width="60" height="34" as="alternateBounds" />
          </mxGeometry>
        </mxCell>
        <mxCell id="8LMI8b_ivUfQCbqz1Wbl-98" value="..." style="shape=partialRectangle;html=1;whiteSpace=wrap;connectable=0;strokeColor=inherit;overflow=hidden;fillColor=none;top=0;left=0;bottom=0;right=0;pointerEvents=1;fontSize=22;fontStyle=1" parent="8LMI8b_ivUfQCbqz1Wbl-96" vertex="1">
          <mxGeometry x="60" width="219" height="34" as="geometry">
            <mxRectangle width="219" height="34" as="alternateBounds" />
          </mxGeometry>
        </mxCell>
        <mxCell id="8LMI8b_ivUfQCbqz1Wbl-102" value="" style="group;fillColor=#dae8fc;strokeColor=#6c8ebf;rounded=0;strokeWidth=2;shadow=1;verticalAlign=top;align=left;fontSize=25;fontStyle=1" parent="1" vertex="1" connectable="0">
          <mxGeometry x="371" y="546" width="332" height="93" as="geometry" />
        </mxCell>
        <mxCell id="8LMI8b_ivUfQCbqz1Wbl-103" value="&lt;span style=&quot;color: rgb(74, 185, 98);&quot;&gt;0x0099&lt;/span&gt;" style="text;strokeColor=none;fillColor=none;html=1;fontSize=25;fontStyle=1;verticalAlign=middle;align=left;labelBackgroundColor=none;" parent="1" vertex="1">
          <mxGeometry x="389" y="542" width="98" height="36" as="geometry" />
        </mxCell>
        <mxCell id="8LMI8b_ivUfQCbqz1Wbl-122" style="edgeStyle=orthogonalEdgeStyle;rounded=0;orthogonalLoop=1;jettySize=auto;html=1;exitX=1;exitY=0.5;exitDx=0;exitDy=0;entryX=0;entryY=0.5;entryDx=0;entryDy=0;curved=1;strokeWidth=3;strokeColor=#3429D5;" parent="1" source="8LMI8b_ivUfQCbqz1Wbl-104" target="8LMI8b_ivUfQCbqz1Wbl-120" edge="1">
          <mxGeometry relative="1" as="geometry" />
        </mxCell>
        <mxCell id="8LMI8b_ivUfQCbqz1Wbl-104" value="&lt;font style=&quot;color: rgb(0, 0, 0);&quot;&gt;value =&amp;gt; &lt;/font&gt;&lt;font style=&quot;color: rgb(52, 41, 213);&quot;&gt;0x0055&lt;/font&gt;" style="text;strokeColor=none;fillColor=none;html=1;fontSize=25;fontStyle=1;verticalAlign=middle;align=left;labelBackgroundColor=none;" parent="1" vertex="1">
          <mxGeometry x="389" y="586" width="198" height="36" as="geometry" />
        </mxCell>
        <mxCell id="8LMI8b_ivUfQCbqz1Wbl-105" style="edgeStyle=orthogonalEdgeStyle;rounded=0;orthogonalLoop=1;jettySize=auto;html=1;entryX=1;entryY=0.5;entryDx=0;entryDy=0;strokeWidth=3;fillColor=#d5e8d4;strokeColor=#567744;" parent="1" source="8LMI8b_ivUfQCbqz1Wbl-35" target="8LMI8b_ivUfQCbqz1Wbl-103" edge="1">
          <mxGeometry relative="1" as="geometry">
            <Array as="points">
              <mxPoint x="766" y="868" />
              <mxPoint x="766" y="560" />
            </Array>
          </mxGeometry>
        </mxCell>
        <mxCell id="8LMI8b_ivUfQCbqz1Wbl-106" style="edgeStyle=orthogonalEdgeStyle;rounded=0;orthogonalLoop=1;jettySize=auto;html=1;entryX=0;entryY=0.5;entryDx=0;entryDy=0;strokeWidth=3;strokeColor=#567744;" parent="1" source="8LMI8b_ivUfQCbqz1Wbl-14" target="8LMI8b_ivUfQCbqz1Wbl-35" edge="1">
          <mxGeometry relative="1" as="geometry">
            <Array as="points">
              <mxPoint x="179" y="594" />
              <mxPoint x="179" y="868" />
            </Array>
          </mxGeometry>
        </mxCell>
        <mxCell id="8LMI8b_ivUfQCbqz1Wbl-107" value="" style="group;fillColor=none;strokeColor=#000000;rounded=0;strokeWidth=2;shadow=1;" parent="1" vertex="1" connectable="0">
          <mxGeometry x="381" y="305" width="279" height="52" as="geometry" />
        </mxCell>
        <mxCell id="8LMI8b_ivUfQCbqz1Wbl-88" style="edgeStyle=orthogonalEdgeStyle;rounded=0;orthogonalLoop=1;jettySize=auto;html=1;exitX=1;exitY=0.5;exitDx=0;exitDy=0;entryX=0;entryY=0.5;entryDx=0;entryDy=0;curved=1;fillColor=#ffe6cc;strokeColor=#FF9005;strokeWidth=3;" parent="1" source="8LMI8b_ivUfQCbqz1Wbl-18" target="8LMI8b_ivUfQCbqz1Wbl-44" edge="1">
          <mxGeometry relative="1" as="geometry" />
        </mxCell>
        <mxCell id="8LMI8b_ivUfQCbqz1Wbl-108" value="" style="group;fillColor=none;strokeColor=#000000;rounded=0;strokeWidth=2;shadow=1;" parent="1" vertex="1" connectable="0">
          <mxGeometry x="381" y="444" width="279" height="52" as="geometry" />
        </mxCell>
        <mxCell id="8LMI8b_ivUfQCbqz1Wbl-99" style="edgeStyle=orthogonalEdgeStyle;rounded=0;orthogonalLoop=1;jettySize=auto;html=1;exitX=1;exitY=0.5;exitDx=0;exitDy=0;entryX=0;entryY=0.5;entryDx=0;entryDy=0;curved=1;strokeWidth=3;strokeColor=#7F00FF;" parent="1" source="8LMI8b_ivUfQCbqz1Wbl-21" target="8LMI8b_ivUfQCbqz1Wbl-91" edge="1">
          <mxGeometry relative="1" as="geometry" />
        </mxCell>
        <mxCell id="8LMI8b_ivUfQCbqz1Wbl-109" value="" style="group;fillColor=none;strokeColor=#000000;rounded=0;strokeWidth=2;shadow=1;" parent="1" vertex="1" connectable="0">
          <mxGeometry x="382.5" y="578" width="279" height="52" as="geometry" />
        </mxCell>
        <mxCell id="8LMI8b_ivUfQCbqz1Wbl-119" value="" style="group;fillColor=#e1d5e7;strokeColor=#9673a6;rounded=0;strokeWidth=2;shadow=1;verticalAlign=top;align=left;fontSize=25;fontStyle=1" parent="1" vertex="1" connectable="0">
          <mxGeometry x="880" y="552" width="296" height="61" as="geometry" />
        </mxCell>
        <mxCell id="8LMI8b_ivUfQCbqz1Wbl-120" value="&lt;span style=&quot;color: rgb(52, 41, 213);&quot;&gt;0x0055&lt;/span&gt;" style="text;strokeColor=none;fillColor=none;html=1;fontSize=25;fontStyle=1;verticalAlign=middle;align=left;labelBackgroundColor=none;" parent="1" vertex="1">
          <mxGeometry x="883" y="552" width="98" height="36" as="geometry" />
        </mxCell>
        <mxCell id="8LMI8b_ivUfQCbqz1Wbl-123" value="卡码笔记：notes.kamacoder.com" style="text;strokeColor=none;fillColor=none;html=1;fontSize=23;fontStyle=1;verticalAlign=middle;align=center;rounded=0;shadow=1;sketch=0;rotation=0;" parent="1" vertex="1">
          <mxGeometry x="842" y="954" width="373" height="38" as="geometry" />
        </mxCell>
        <mxCell id="8LMI8b_ivUfQCbqz1Wbl-124" value="卡码笔记：notes.kamacoder.com" style="text;strokeColor=none;fillColor=none;html=1;fontSize=25;fontStyle=1;verticalAlign=middle;align=center;rounded=0;shadow=1;sketch=0;rotation=-15;textOpacity=25;opacity=50;" parent="1" vertex="1">
          <mxGeometry x="340.99999999999994" y="434" width="424" height="36" as="geometry" />
        </mxCell>
        <mxCell id="8LMI8b_ivUfQCbqz1Wbl-125" value="" style="shape=image;imageAspect=0;aspect=fixed;verticalLabelPosition=bottom;verticalAlign=top;image=data:image/png,iVBORw0KGgoAAAANSUhEUgAAAUIAAAEkCAYAAABaADjbAAAEDmlDQ1BrQ0dDb2xvclNwYWNlR2VuZXJpY1JHQgAAOI2NVV1oHFUUPpu5syskzoPUpqaSDv41lLRsUtGE2uj+ZbNt3CyTbLRBkMns3Z1pJjPj/KRpKT4UQRDBqOCT4P9bwSchaqvtiy2itFCiBIMo+ND6R6HSFwnruTOzu5O4a73L3PnmnO9+595z7t4LkLgsW5beJQIsGq4t5dPis8fmxMQ6dMF90A190C0rjpUqlSYBG+PCv9rt7yDG3tf2t/f/Z+uuUEcBiN2F2Kw4yiLiZQD+FcWyXYAEQfvICddi+AnEO2ycIOISw7UAVxieD/Cyz5mRMohfRSwoqoz+xNuIB+cj9loEB3Pw2448NaitKSLLRck2q5pOI9O9g/t/tkXda8Tbg0+PszB9FN8DuPaXKnKW4YcQn1Xk3HSIry5ps8UQ/2W5aQnxIwBdu7yFcgrxPsRjVXu8HOh0qao30cArp9SZZxDfg3h1wTzKxu5E/LUxX5wKdX5SnAzmDx4A4OIqLbB69yMesE1pKojLjVdoNsfyiPi45hZmAn3uLWdpOtfQOaVmikEs7ovj8hFWpz7EV6mel0L9Xy23FMYlPYZenAx0yDB1/PX6dledmQjikjkXCxqMJS9WtfFCyH9XtSekEF+2dH+P4tzITduTygGfv58a5VCTH5PtXD7EFZiNyUDBhHnsFTBgE0SQIA9pfFtgo6cKGuhooeilaKH41eDs38Ip+f4At1Rq/sjr6NEwQqb/I/DQqsLvaFUjvAx+eWirddAJZnAj1DFJL0mSg/gcIpPkMBkhoyCSJ8lTZIxk0TpKDjXHliJzZPO50dR5ASNSnzeLvIvod0HG/mdkmOC0z8VKnzcQ2M/Yz2vKldduXjp9bleLu0ZWn7vWc+l0JGcaai10yNrUnXLP/8Jf59ewX+c3Wgz+B34Df+vbVrc16zTMVgp9um9bxEfzPU5kPqUtVWxhs6OiWTVW+gIfywB9uXi7CGcGW/zk98k/kmvJ95IfJn/j3uQ+4c5zn3Kfcd+AyF3gLnJfcl9xH3OfR2rUee80a+6vo7EK5mmXUdyfQlrYLTwoZIU9wsPCZEtP6BWGhAlhL3p2N6sTjRdduwbHsG9kq32sgBepc+xurLPW4T9URpYGJ3ym4+8zA05u44QjST8ZIoVtu3qE7fWmdn5LPdqvgcZz8Ww8BWJ8X3w0PhQ/wnCDGd+LvlHs8dRy6bLLDuKMaZ20tZrqisPJ5ONiCq8yKhYM5cCgKOu66Lsc0aYOtZdo5QCwezI4wm9J/v0X23mlZXOfBjj8Jzv3WrY5D+CsA9D7aMs2gGfjve8ArD6mePZSeCfEYt8CONWDw8FXTxrPqx/r9Vt4biXeANh8vV7/+/16ffMD1N8AuKD/A/8leAvFY9bLAAAAbGVYSWZNTQAqAAAACAAEARoABQAAAAEAAAA+ARsABQAAAAEAAABGASgAAwAAAAEAAgAAh2kABAAAAAEAAABOAAAAAAAAAJAAAAABAAAAkAAAAAEAAqACAAQAAAABAAABQqADAAQAAAABAAABJAAAAACw+4+4AAAACXBIWXMAABYlAAAWJQFJUiTwAABAAElEQVR4Ae2dCbx/1dT/T/ohpMwRUiolyVAyRnk8xRM9JCFKpPAoHhX6kwxFQkmSsSRShtJDmYcMUaJMkTmVKFOKiIb/fZ9fn9u66+69z/4O997z/f7Wer3Od417OOvcve4+ezorXT8DTUB4IDwQHliBPXCTFfje49bDA+GB8EDrgQiE8YcQHggPrPAeiEC4wv8JhAPCA+GBCITxNxAeCA+s8B6IQLjC/wmEA8ID4YEIhPE3EB4ID6zwHohAuML/CYQDwgPhgQiE8TcQHggPrPAeiEC4wv8JhAPCA+GBZdPigtggMy1PMu5jkjyw0korTVJ1s3Vd8kA4yQFskuue/YsIxcR6YCmC0rjawFLU3T7olWZuZMH3Gi9EEQuRp3VM0OGB8MDgHliIgLYQefo7W5BAOI4gNUoeo6T1Dgo+PBAemOuBUQLTKGlVi3HkobyExxYIhw0+g6QbxFY3OEwapQ0cHggPLPfAMMFnkDSD2NpnMmw6mwf0SIFw2CBTk25cNtxkTV7YBYQHwgPzPVAbbGrsxmUzv5YzwWyEiZuhAuEwgaUrTUk/rE7OKqWXTQ6PkjaXZ8jDA4vtgZGCREWAKeU/rA4fldLmfDhUmpmGPtBkySDmJdthdLk0OTmOKumsI2vtbJqgwwOT7oHaoFGyy+kGlePLXJounX8OpXy8bZv3TACoDoS1piW7nC4lH0XGzaXSWyd06a1tih41fSrPkIUHhvXAoI3fl9OVPqdPyUeRUa9UetW3pJNNVx7WrrWdacxVgbDGrGST0nmZ56mgl3k+ZZOTleTogFT+yzXxGx6YHg90BZOcPiWvkY3Lxj6BVJ5WD11j09rNNPxiIOxQz5abs0vJvczylibzUflUHqq0z1tyj2vtfLrgwwN98EB1MMiMBabSe9kofFdafOht5NecXHrhLrvOyZKuIJDTe/kgvLW1NDdleUt7XYrPyUpydB58uV4ffHhgKT3Q1eht3XK2KbmXlfhaXcmOenbpdS/eTnLhTv1Mo872CAuqNv+c3sstb2kysXyKTslK6bp0Xg8vsGVJlsK1dqm0IQsPLLQHuhq9ys/ZpeRWZmnysnwX3aVP1c2m8eXJviSXjc9H8jbtTKNOBsKMeDZtSu9llrc0mYgXtjJLp/QpmU3j6Ro+ZYPMgy3b64IPD/TFA6VGrzqmbLysxFtdiq6VUR/ZCqfqWNKl7CWz2OchXfbVuNTgUzovs3yKHlQme2FuQLSwlZVor0vxyAQ2f8kChwcmxQO5xk/9va7EW12KLsmkE7Zl18psGmjApl0uScu6dMlAWGr4KZ2VDULLtgtzE1020qdsrczTKR4ZYPNcLonf8MDkeiAVNLgbL7d8ii7JpPPYluN1Od6mqaWxA5Tncm7ub0o30DFcqcBgZV209OPEyotbFe1xSifXyDbHd8mlDxwe6KMHUo2eenp5jrdy0Rar/SDjgk/hYXxj8yG98i7RKsfaSlbCAwVCn5GcgDxFl2TSgS1t8/K6kp1Pl+JzMiuHBlTWcm7ub0k31zK48MDie4AAkgOvy/FWLrqEaRMpPTKrK9VLdilMOp+X7NBZGn5QqA6EFGTB8inay8SnsJXlaMpGN4heaSyupb0dvAXVw8qCDg8stQcUjFL18DrLd9HSW2xpyoPnom1IJ1rY61P19LJcXtgpX0+neGQ5mDdGSMYevMzyKVqyErY6T3ue+iDTZfkUnZNJnsLIAJW9nJvPd8mlDxweWAoPKGj4sr08x0suTD6iwZaWzso87XmbpqSTXQ22Np5O8SlZdY+QxIANFClashS2Mk/Dp2QqU/ouG2svuoRTOmSAylrO3fibk99oEVR4YOk8oADja+Dl4oWxF13CVufpFI+MNgOW3vO+ruJtWqXxGFvJPK18unBnIKSALpBNCaOzek9LL0yZoj1O6bxMvDB5iE5hK2sNZ36UJsdLHjg80EcPKOiobiVeuhTOyawcWhflibYYOW1KMvgawF7pcriUj9KUbOYEQhKUwOpFl7DVeRpeF2WKrsEle6+zvOgStjpogDp5SMm8TfDhgcX2AEHDg5dZXnQJWx10ipe8Sye9rSNtSeklh0+1MclLmDyUp/Lz2OvnBMKUsZfBq4IlbHXQKV7ycWDVy+dl5Z4Wn8JWBg3oHpZz8Rse6LcHCBYWLC/aY+yRWbmnpS/JrU0NbeuZoslD7U90Cfs8SIt9DoqB0CZSJazM0tILo4O2V0pm9Z6+7rrr5qT3+hrelmlp0oq3uER7HXxAeKCPHvCN3vIpWjKwLu4rRUs2KL7JTW4ykqsoD6DtQgvnMu3S23TZQKhAYY2hJffY69DrKumwyQW8QeUqz2OVL7nlRacwMoB0AktLFjg80DcPKGhQL0tbXnKLPZ3ikZUuAl5Kr7K9rhQgsfVtTjIwgN7KxLdK85OTY5INhCb9bEVUoRS2Mmhd5OPp2gDn7TxPvimZyvPY1gWdeGEvaw1mfiSXneSBwwN99YCCBPWztOWRS2exl4svYRv8aC/YWhm8ylY+CoC0YcmUrjWe+VFetg0qH8lIY+1SvPLL4TYQKkMZWd7S0lts9dCWx06yErbBbBS6VEZKp/oJYyO6JWZ+JPPyFK80gcMDS+EBAoAFy6doZJJbLPkgmHYiewVAZKJ9/sgVABUQVXfJSaP2p/TYeJnKVnqPrd7T2JJ3VY8QYxVusadTPLLclQp6JVlJZ8uwdlZuad0TshQtWauc+ZGdl0sfODzQFw/YoJGiJQOXaOk9tsFNOtoHNDpPyx7/yF40Otqr0nof2nYnHbZWbnnRFitdCVcHQpuJrYSlsYGvuRSshEkDLX5QrPS2bOVhZZa29fW0eItLNLqA8MBSeoDGL0jRXiYe7GnJLFZAo10hFw9Nu7IYHbIUxg5AZ/OCRmaBPFKgPNCpbE+n0uVkAwXCXKWQD3IpQKWwlUFvuOGGubqHPDwQHpgQD5x//vmzQc4GMWgFRIt1W7mYIz3Y5ic56VJy6T0uBkJVQpjEosG6fKayk95iG+iQWx7a86m8QxYeCA9Mlgdo1wIboGzww8by2BMjLNi0klsb9PCyEy2sNB4XA6E1toVZGhv4mssGOewtD61LOviA8EB4YPI9YNuygpTuygY/7CxPLLDgeXQ2P/TiLW3zSNHZQKgChX1i5KUL+5KeG0YPLl2+3ODDA+GByfPAtddeOxsPCHQeUsFP8UO2BDhkJVAQtDakUdqUHtt5gbBUkK+YLQxaeo8V6JCnaMlS2JcRfHggPDB5HqBtd4GCIXaeRkb8sJALarIr6b1uXiC0BeVoH+jEy158CaeCnpfxXyQgPBAemHwP1LZlAqDiBnftaWQKYuhSIH1Kl5MlA6EvwFYml5FslNbyogl00Ap4lpYMjNPE58oLeXggPDA5HqA9A7T5FBC8ZCM6FRTR2TxKQU921gaZ5VWXZCCUUhlZ3sqgdWEjuoS5WelFg3XZIFj7X0T1CxweCA/00wOltkxgov0r8FlasYK7sjQ86ZAJFOAkE48emeWVRrgYCJWBjIV9hSwv2mNuTjIFPWHk0D4IIgsID4QHJt8DubZMcPI6ZIoJovGA4ge0lUMD6AHxLTPzg9zLpBPuDIQyTGFbMdElzA1zYSM6hRUQS/9FUvUJWXggPNBPD6TaMsHJByh4YgKgHiLxAlBsEQ3GXnqfF/paWKZMSFCiVQmLVYjSWWztFPwks7wPhDYIppynMgOHB8IDk+OBVFsmcCl4KaARD0QTL8Rzp4of0lssfcoj2Emfoxe8R2iDnm5M2AfBFJ+6sZCFB8IDk+UBBTQFIrAu7sTKZavAB297h8gBMOnEK49WOeBPZyBUIT5fK4cWL9pjBTnkosGeR8Z/D12+3ODDA+GByfOA7xEqCArT7oEU72MJPHaSQwOSt4z5ycmNyfwF1VZJBhZUsOQ5njRWV6JtUEzRtvygwwPhgcn0AG1bQS6HS3FCOu5etA2GyMVDA/AC0lhecuFkj5BEFlSwlXna2ohO4VSwk4z/GqLB/r+ILzP48EB4YDI8QFsmEOmi1qKFvSwVP5BhLx10DrBRnrJRevHCyUAoZQ6rEh5j72WWJ7h53gY+BT+cpqCYq0PIwwPhgcnxgNq2rTEyBUFhxQfpxHtsgyE6QLgUHG35lp4XCJWZNbJ0SY9OF2lEg7kxYegUL7lw9Ait54MOD0yuB3yPkGBFO1cAZDLE8tLbSRLu3saUXMDDJqdTHl4//xiIG3xNZkp0g6ithKVtpYahuXHSKfBZHD1CeTpweGDyPUDbVpu27RxaMWCYGOLTyFPIBaKFJbd4Xo/QKi1tM7G0tbE0Nrr8zeYc4eXRI7QeDTo8MLkeUI+QNk5vjAs61RO0MtkrlnR5ADv19izdlS7bIyQhGVmcolXBWsyNWVt4f9n/HG0F4ic8EB6YaA+ojdu2LRnYxwTL19JyEPYC0cKSe1zdIyShzczT8INccgJp5AjJLPYVDn65B1ZfffXmfve7X7Ns2bLm97//fXPRRRc1V155ZbhnAT1w85vfvHnoQx/a3P3ud28uvfTS5rzzzmt++9vfLmCJ05O12rR6gmC1fdsDtGOCtfFEXsJ+mN4g6QcKhLbAFI2spvIKfHKEx3JavBrLy/Px3nvv3RxwwAFzFL/85S+bo48+ujnhhBOaCy64YI4umNE8cJvb3KY5+eSTm6222mpORh//+MebV7/61c2Pf/zjOfJg5nqAtkyQUyBU8LNYcaAmGNrcSTdsAFQ+xVdjGYEpzGMrgxbfGt7wI7nHCnbIRaewzSvoGz3AH4uHddddt3nDG97Q/OpXv2pe8YpXNLe4xS28SfBDeOC2t71t89nPfnZeECSrHXbYofne977XPOMZzxgi5xUnSaptS2ZjgI8T4r2nJAcD4kVbDN0FbWuymZBAmXs6lZm3VV61OOUMycABaQ+cddZZacWMlP+Or3/965v3vve9s/8ps8ahKHpggw02aE4//fTmwQ9+cNbupje9afOhD32o2W+//bI2K7rCtmnRxAhL18YM2cmn8CWwek+Ln9+tSOQo4xKWjuTQupSdeG5ctMVyiPTilT7wXA98/etfb/7973/PFTqOXsrOO+/spNPN8k/gIQ95SHPggQe2welFL3pRc+tb33rgm2bs9QUveEHzwx/+sNlkk02q0h900EHNve51ryrbFc1I7Zk2L1pt3cYB6SWTn8SDBZLBS57DSpPD2UCoDHMJpRfGDlq86BS2jrC0bK0sV/6KLv/rX//anHbaaZ1uOPLII5u73e1uSTsa+x577NEO/F9zzTXNr3/96+aoo46qbvjJTJdISAB81KMe1fAP4lvf+laz//77t6+rb3vb25pzzjmnWWeddapr9oAHPKD5whe+0PqC3l4trLzyys3BBx9ca75C2dk2nWrnKb3sLMZp4uVAeMklS2HZpXTZQJgyRpbLTHKwpyXrwtYZonP1CHnTfPSjH+10A72hM888s3nc4x7X3P72t5+1Z/D/Ix/5SPPud7+7udOd7tTQiNdee+22F/T973+/ed/73tebMcZnP/vZzW677dYwVueBe3rKU57SBkBeYR/+8Id7k2a99dZrvvzlLzd3vvOd5+msgN7ciSee2AbOLbfc0qqq6egRpl2l9mxxVzzwenKWTHSqNGwGhZVmKjaT7saE0FQWbC/JdCPomAkSRq41QmB/0eNABtbleV71uKSHfv7znz/oPa0w9quuumrDTDGBrBZ+/vOft+OG9JAIfiU45ZRT2l7VVVddVTJbUB291n/9619tncGMjX73u99t/vGPfzQPfOADm8c85jGd96EK8g+BXiP5CPDdrrvu2uy0007tciTJh8X46la3utWwyac23bve9a6G3jXPkwva8sj4e5Te8sj9xWQhMmHeCODByLhEg+0lnZzd2okBE9RKYPWiS9jqoHOXgquCrbUr1WdF1/3tb39r/t//+38DuWH99ddve0j80XTBE5/4xGbPPffsMltQPf8UmbEFbnazmzVbbLFF87//+7/tfW+zzTbtH39tBRg7JOBZOOyww5pDDjlkLEGQfPnnTT0D5nrAtmnoUpv3tuQkmegStjroFJCfhYFfjW1i0co0hXUDOZwKftZJKiNw2gPHHXdc87nPfS6tHIOUCYA73OEOY8hp+CyYtLjsssuGz8Ck3HHHHQ3XtOsu9Xc7RzEkw/OwPc4hs5m6ZLZN+1iQigHeRs8oh0d1WGcgVMEqyPIpWrIUtjJof8lZksMHlD1Aj4ke0kIBry9rrbXWQmVfle9vfvOb5j/+4z+av//971X2JaP73Oc+c9Rf+cpX2tfrrtd/dpA8+tGPnu2dzsnEMCyjCZjvARvsfDtXexcmtaclS2Er83SKR+ahMxCSgEpZsHyKliyFkaWunKNsuUGnPXD++ec33/jGN9LKMUj7MOb1ox/9qOFVmFfPUYAxVQ9MpGy++ebNd77zHa9q/1ZZj7nxxhs3BM1VVlllno0EP/vZz5J5SL8iY9q8D4C2zadiAv5CXsJW5+kUjywF87bYqeCUsZVZuxQtGVgX6VNy6T3GUQF1HmAi4BGPeESdcaUVQec973lPuxylMsmCmp1xxhnNE57whOZjH/vYUGsDqRzrC1PAvuEHPehBzZprrtk88pGPbNjLzew5W+euuOKK2SQbbrjhLO2Jd77znW1j9/Lgm+QErG/vNjbgM6sXb3GKZuKjC8jX280LhLlMVMkavWx1I6QR3YX1X0I4V17I53rgd7/73VzBAByv1+eee27bm6F3ycwye5Uvvvji3h3kwHgovTOW9/znf/5n9V0ybvfUpz617dWVEl1yySXtEpqUDUuRSktw6FkGpD1Au1ebFu6KBegB2YluhTfIRacw6XzAS9khqw6EGKti0ICtoPhWcYPO00qvdDVYeQQue6D2gZMLy5ZYMHzSSSe1r9SMwbEcZVLgwgsvbLbeeut2BpmDELomczidh3WU7An2wAzvPe5xj4YA2DUGyakzOWCMkX8iAWkP1LR12ZADtMVdtOzbRDM/8IO0iaoxQmXuKyO5rQS0eE8rvdfLLoVVRuCyB3iVq4Fjjz22WXtm4TSBgV4VjXeSgqC9R3aRHH/88VY0j+aVd9NNN00GQYxZUM7YHj3g0n5ibFl6lAPqErPFOe/c2GlKtXHJSO3plAwbgaVLMulyOBkIU5nbDFJ6L7O8aHCJlt5iW27QeQ/c5S53yStv0Dz3uc9t2KXBK+80AAcivPCFL8zeCr08eo7gHOj1ml4lE06lcVY/42zzJBAG5D1g27SnSSVZilau2FjwvNJaG0+n0mCTDIQocgnQASm9l1keWnwXLT1jCQF1HmCQvwSHHnpou2auZDNJOl5pjznmmHYnQqrevOYS5EpBkHR2IoTdDG95y1uyr1TsZMnBt7/97Zwq5DMeSI0L4hi19RItHVigWCIenJLV6rOBcNiM7Y0pD1tBq6+h7Y0EnfYA+2vZcZEDJkPYQTFNwCLrhz3sYdlb2m677aoOS/Xjgrwes5QmBSUfs7wnoOyBmvZubciti1eJ2JWgS18MhKWMpcsV4OXwVmZ50SmscgLP98Atb3nLZp999mm++tWvFpeTfOlLX+rsGc3Pvb+SjTbaqO255WrI4bS1M7ipiZZUz48TfHJ7uul1jjJrn7uPaZKn2rZk3KelU7xkYA+kHRU6Z41rCvE3oUql5F6W471ceQaemeqfeYXjsAGOmKo57WSY8StOemHckVNquFg6wrrCP/7xj+3Eg32lXMxnwuJuTs3BByk4++yz20NpUzovI4+73vWuXtykxgLve9/7zrOTgH80AWUPqD0Ly7qLx87b5NJK7jHpu2aQ039NLicyqoGcXepGvEy8zcPSNeVPuw0fD2J3BYuCaw8LxSc/+MEPsq4hyDEbSi+Lj0FxFh953+52t8um4VWbxv+6172u+eY3v5m1WwgFnyBgHWEKmP1+2tOe1nRtl1NaenhsIfSQWivIqTU5GOYfTS6vaZXbtpxr69YGP8gu5RNvm7JRHl1BELuqQKgMwV3QVXl/A7K38pSsq9xp1rM0hsXAnDTD0heA3hlLR9j+xZl8n/zkJ1t56kcHFtDLY2cEr37somBskbP6BgV6UgRk9v9yCnbNuYiDlpGy5wtyBMIcMG7I91pqIbcukHWHFji26ZnPfKYVzaEjEM5xR5JJtemUjMSSpzIq6bw9tjVBkHTVgRDjQSuBfQqUj9dbudel8pl2GWOAL33pS9txQF5N//nPf7aLoFkIzQ6LP//5z60Ltt9++6IrWC/ILGvNa3QxI6ckIPKayk4UdqYsJNBz5et8OeAfASe/DAL3vOc9k+Y+ENJTTr1Ck5jxwZ/+9KfJfEI41wOl9m11c1Mt56RP6bxMtrVBkPQDBUIVSEG1oErl0li9t/F8bZnTYseSGMYCWSZCQ2eJBmcQeuhayJt7lfT5DMuzx5b1d7wyLxS86U1vaneApPJnvJIDfPl74QxFPq/JKy8zufqnkRrTzO0b/p//+Z82wHHkP6/J7LfOAZ/zXNH/TnO+sXLvI3h7WVvRXXrZWUyaQQKg0g4VCEmsSiqjGqw04BxYm5JdLv00yX/xi18kl8XQE+OEaV5vGbvadtttl/S2WXLCa/JCnYvILpjdd989e48cHsusLctb6KHqYFQmPRhSYILnWc96VvPpT396Th6pY/0xYJKI70PXAIEwoNsDte3a2nXneqOF0g0TBMll6ECoKqgC4EHAphs07SDlTIMtvRt2UdDQOROPXiKvin0C1t6NKxDyx3zve9+7nbBhX3TpjD+2CH7+859v10lyLmOqIbBEhg9dMc6nLXl88zkXCPfdd9/2GynUoQR8NmAhjz8rlT0tulHigE2beu6D+GjkQGgLsxWz8hraprV0TdpptGHdGq+bj33sY9ujp0qzuKPeP1/E45w+Xh+ZSeV1cNDySvtwa+tHT/fpT396OynUFYSUJ6+3TJAwntoF7CtmtpsxwHXXXTd5tiA+ePvb397uw+Zos9zrM2UxfsvfakC3B2ybtnR3yrkWo6Sdm9NcbqyB0GZtKwwd0LTjVuyG4PQUPp1pgR7eZptt1u6NZZxrHIHF5g/9pz/9qQ0ELMDmJJZLL720+cMf/jBnm5nS8Hq5xhprtN8Ipgf6+Mc/vj2rT3qPGcccFZjBHnTCgzJrgiB2rEHkFZ5eIcMKKeD1mTFXLr6Ox3eNc8A3k9/85je3/zjUQ+c1nI9LHXHEEQ3nJwaM5oHFiiMLFgj97fsb8ry3nzaervunPvWpdtnJRRdd1C47oddF8ON1l3G2mg8qDeMX1tZx+jLBt3b/NoGAenJxECr1Z1ySV2DqzIeQ6LXq05+nz3xKc1TgOHwmKtgtQ49tIYC1mAABMQVMrgiYbGGdZG4r3w477CDTWcxSJ+rOt1H46BS+p8cdkPaAjwOeT6cav3TO5zxVCbtBWjTYX4zfIAP7ixlELuRg1r1JBi1eNJjG5/kDDjhg/He9BDmySJmgsRRAj2mSjtpivaOWBo3bX5xGQ0+NtZWpTxAQIAnwBHvGEFPb7QapE+c+0sOvXeQ9SN6TZMvie94yGO/W5XmGRqSDFg+mkyAZtL9Y64kM7C/+iSMDexofIlu0HuEkPbSFqGtpw/6w5TGrzKwlPQ8+TJ7aEUHe/AFNEizULDj/iOi5chR/Kgjio3Fvl+MEHLZClma9J+nZTGtdJ6uFTPBTqD04tesWacgf/OAH2yPn7TjjF7/4xezuh0kKhOz24GPggwJvEvQmSsB5jNiNGpQ4sYbZ4p/85Cftoa7aucNQBz1KluxYoFx6hou1A8eWHXSdByIQ1vlpZCuOwx8WWCP3jne8o/nwhz88b5JFebKzI7cNrCtAKI+lxgTs97///dnemq8fawbZNXPOOec0f/nLX5o73vGO7QSQt4M/8sgj23FSXoOY+BkECJ78A2Ii5Wtf+1obAHNDDWx5RLfrrrvOKYL7YrnNKH8HczIMZqweiEA4VnfmM2NnCF9E43CDWuCYecZWTj311M4xptJ5eJPSIyR45CYxvM8+8IEPzAs2jFengPE5dpsAjD/mXot9Wnp9Rx11VBsAB5nwIFj6QMg47cEHH9zstNNOvpjge+CBkc8j7ME9TEQVrrzyynZ2uBSwdCN8P5eAwAQLr1M1A+3s982BdlpYPTObO++8c3toA694vO4RSKAPOuig5v73v781X3CaDyix5KQWUucIsuYyBQQzTb7QWyv5E7vXvva17fIlxnXZ3zxIEKT8XKBljeRaa62VqmLIltgDEQgX8QGwbo+lGMcee2yyVCY8mKVkOQ0Hi+Z6OKnEBNoc6NWY3RSc3EzeTLSwZo/xKxYN02PhtRH6la98ZXuIAgGEHtRCAz1W1iFSPw8cNJECf0gqwZ4FzimwY44EQnrYHlixQADkH8RrXvOa1j/eppYvrQEtLdCuzT/sxu+BeDUev0+LORKw+IDSIYcc0i7PYBKF2UwW7mrQvZhBRsnSpBwQCFkczacvc2viUmk51orAzILq1GEPqTTDyHbZZZc2+Pu0BEHWVzK+52fd7TdaCNZvfetbk2c0EvTYNWOBLXQsjdGJMuwr5tWZdYzjgNKuGJaoBfTPAxEIl+iZsEd2nN/BZUA/B7zm8lGimi/d+TwIRCz/2G233bxqLDxr9tjSlgJeJTlUlhlXHwhZKsRnOjlM4TnPeU72dZQA6YFF4gR4DmVgKMAfu+XtxfMPhQXZXf8USqf9+KCsvAMvrQfi1Xhp/T+20kuBkJnVVVddtV0jN0yPhB7sMEE0d3NMGPEayyJX6pbaIve85z2vOeWUU9osmDTywOJZdsvstdde2SDIa3Bumxu9b8Ziu4Lgaqut1u4OYYaa7XP06AlmufFIXq1zvmL8ke2VAf3zQATC/j2ToWrEGFcOXv7yl7eLrXnFffKTn9zu9snZpuSMHY66w8Lmy/YzPglAb46Trj1QX3sGIOOZwwD/HK6++uqBknLaN4ddEKg51Ya92EyYUGeCIsCBrp/5zGeSx59xZFgOWPheGsLIpQv5wnsgXo0X3seLUgInWOfAzpR+4hOfaL/3S29LDTuXzsr95ITVDUpzhiKvtU960pPmJWWJCYewWuB0GYKaJn2srkTz2kvA5T45aMIDY4tMXhDk2TvN6zez17XApxM43ssCny7Iwbh3reTKCfngHohAOLjPepmiNLvrdbwS8lU29nEzvkaPrwt4LRwH8BrMhE1qSQ8nuTBj7YExORY0s12tFlgOxLFbHJrAuB6vsrwGM17Kt08IxqVJjZpymHBhjPPiiy9uzZnAIaDmYLE/dJWrR8jneyAC4XyfTKQkta5ON5I6W5CxKpbOsGaQnhnHUtF74gBYHxjZz8zZfOMA1tGlgiCTGvvtt1/2fD92dfhAyJrMvffeuz1GjKEBxkE5DovlOHzWgMXoq6yySlvtcR0a631AmQL+qeTg8ssvH2lJTi7fkI/HAxEIx+PHJc+l9OrKuFcOLrjggnbpifQsBqaXQ++G11HOMOQVc1ygc/tsfgRBlrSU1k2mXm3ZVseMcgpYlrTQuzg4WUkzyNxXbh0j9YvxwdRT6o8sAmF/nsVINWGdYA5KgdCn4ZWSr7It1JfZ/Fjm/vvv37zhDW/I9gRVP50cs+WWW0pUPEWbmVv1BmcTdBAEfj7NyVgeS5vYF8wieHai0Iul180/CM5l5HWbGWm9FjPxUxpzZZ94QH89EIGwv89moJqVvk9cem0eqJAxGKsHRVYs2La7PkrZ01vkS3UspWHpDFCagfWv96m8Sc/MMCf3ENTIm38EOWCMMbVFkt5gamxT+fBazG6egP56IAJhf5/NQDVjaUwOOJWlL8AOmsMPP7x9VRx03I5e6hvf+MbZoFMKLrmtefiBdJwGwxIYXv1HhQMPPLA9+SaXDyfSlAJsLl3IF88DEQgXz9cLVhKvZLlvcFBonwIhPcKXvOQlQ/uCrYm8XjPzXOpN2p4nhfGNFhZvs2xoXFvpyJd68DnREnB+ZEC/PRCBsN/Pp6p2bOnS62IqQWqCImU3CTJ2drz4xS/urCoLodkWyGwyy1ZYi9gFzADzUXd6ray3ZJlRadkQk0r6PGgub+0jz+lD3g8PRCDsx3MYqRa57/MqU5aTsH6vdPyUbKcJD/plPXqRLJBmZwv7nNmOyGs0M758mY6eJIGRmXV8fthhh2W308mPhx56qMjAPfZABMIeP5zaqtUcZsoM6ooWCGv9Z+1Yy8geZo5KI+Dh2xr/2jxE0xuM4/nljX7j2Gvc7+fTWTsa61ZbbdVplzrrrzPRCmrAAnJ23nDyzSjArPige51HKS/SDu+BCITD+64XKVkak9qp4StXWqzsbYNv2m/DcPjCsBMdjB0y3hgwGR6IQDgZzylbSw5UqIErrriixixsjAeYmGGhNLPCgxxfxjN52cteZnIKsu8eiEDY9yfUUT8aa9fYH0Ew1rF1ODKjJgDyBUH2Odf6kFfiSy65JJNjiPvogQiEfXwqA9SJ3ocOMM0lq1k6kksb8uUeYNvdZptt1nC6dQlY8M0X9gImywMRCCfreSVry7dISnDSSSeV1KGr9AD7j1k2w0EVKeAsRY42C5g8D0QgnLxnNq/G9FZKJ1TzTeWA8XiAHiEHuNpvj3Ck2fbbb9+84hWvaE/sGU9JkctieiDWES6mtxeoLDb1M0vJt0U8cMx96qAAbxd8vQc4cYatdRzCyl7ls88+u/iPqD7nsFwqD0SPcKk8P+Zy+SRlCjgjL5bOpDwzmoyPP9HT5tSaUm98tFIi9WJ5IALhYnl6gcs566yz5o1dnXvuucmPmS9wVSL78MDEeSAC4cQ9snSFOVvPf8OXY+xLZ/alcwppeGDF80AEwil65scdd9zsWrcjjjii/eDRFN1e3Ep4YME8EJMlC+baxc+YSROOst9kk03ab/Eufg2ixPDAZHogAuFkPrdsrTk5hSsgPBAeqPdAvBrX+yoswwPhgSn1QATCKX2wcVvhgfBAvQciENb7KizDA+GBKfVABMIpfbBxW+GB8EC9ByIQ1vsqLMMD4YEp9UAEwil9sHFb4YHwQL0HIhDW+yoswwPhgSn1QATCKX2wcVvhgfBAvQciENb7KizDA+GBKfVABMIpfbBxW+GB8EC9ByIQ1vsqLMMD4YEp9UAEwil9sHFb4YHwQL0HIhDW+yoswwPhgSn1QATCKX2wcVvhgfBAvQciENb7KizDA+GBKfVABMIpfbBxW+GB8EC9ByIQ1vsqLMMD4YEp9UAEwil9sHFb4YHwQL0HIhDW+yoswwPhgSn1QATCKX2wcVvhgfBAvQciENb7KizDA+GBKfVABMIpfbBxW+GB8EC9ByIQ1vsqLMMD4YEp9UAEwil9sHFb4YHwQL0HIhDW+yoswwPhgSn1QATCKX2wcVvhgfBAvQciENb7KizDA+GBKfVABMIpfbBxW+GB8EC9ByIQ1vsqLMMD4YEp9UAEwil9sHFb4YHwQL0HIhDW+yoswwPhgSn1QATCKX2wcVvhgfBAvQciENb7KizDA+GBKfVABMIpfbBxW+GB8EC9ByIQ1vtq4i1vc5vbNOutt16z+uqrT/y9xA2EB8bpgQiE4/RmT/N6ylOe0px11lnNn//85+bnP/95c/nllzff+973mr322qu57W1v29NaR7XCA4vngQiEi+frRS/pFre4RXPYYYc1H/3oR5vNN9+8WWmllWbrcL/73a854ogjmgsuuKB5znOeMysPIjywInogAuEUP3WC4Ete8pLiHa622mrN0Ucf3dBrDAgPrKgeiEA4pU/+CU94QvP85z9/9u7e+973Nl/4whdmeU8ccMABzU1uEn8O3i/BrxgeiL/8nj/nm970ps3WW2/dPPrRj27udKc7VdV21VVXbY488sjW9h//+Efz0Ic+tNljjz2aW97yltn0G2+8cUPvMCA8sCJ6YNmKeNOTdM9rrrlm87nPfa6t8vXXX98cf/zxzUEHHdT89Kc/zd7Gzjvv3Ky11lqtfocddmjOPPPM5h73uEfz8Ic/PJvmXe96VzuJkjVYIsVjHvOY5m53u1vzxS9+sVm2bFlz+9vfvvn3v//dXHbZZc0f//jH5pprrlmimkWx0+SBCIQ9f5q2oTPZ8cxnPrPZcccdm1122aX5yEc+Mq/29Pr233//Vn722Wc3n/70p1t6t912m2crwW9/+9vmVa96ldh2UoWJlquuumpWtlTEFlts0fDanoJ//etfzY9+9KPm+9//fvPtb3+7OfXUU5uLL744ZRqy8EDRA/FqXHTP0isJUlwWbnazmzUnnnhiwzigh8c97nENvUjg8MMPb/Htbne7Zp999mnp1M+LXvSi5lGPelTz9re/vTn33HObq6++uvn73//eLrnZfffdl3TskB5wDvDDAx/4wObZz3528853vrO56KKLOieHcnmFfMX2QPQIJ+D509t50pOeNK+mJ5xwQrPRRhs1F1544ayOoAZceeWVzac+9amW3nvvvYvjgyeddFJr539YcsP1yEc+sp14ITguNvzsZz9r3va2tzUvfvGLq4pmpvyMM85oe4hVCTqMeC3n9XzTTTdtX8dZj/mVr3ylfT3vSBrqCfJABMIJeFjsCEnBrW51q+blL39588IXvrBV3+te92qDFswxxxzTBkMCJTajAK/jjM098YlPbHgdXWx45Stf2ayzzjrNdtttV1U0PUT+eYwC3C+v5Cw6t+svyfOcc85p117ySh4wHR6IV+OeP8d111232WqrrbK1ZDaYXguw5557ztoxNshMMJhJhlGBV+773//+o2YzVHp6oqxzfM973lOV/sEPfnCVXcroLne5S0Pg/cUvftHQu/ZBkDS8jjP+utNOO6WyCNkEeiACYY8fGhMWH/7wh4s1JMjtt99+zd3vfvfZdYP02hhXpOfCbPG4YI011hhXVgPnwz2dcsopVenufOc7V9lZI3bavP/972/HGZmVz/XClYZlTYxfvvnNb25ufvObSxx4Qj0QgbDHD+51r3tdO0bXVUVejRknpHECjJOx5lB8V/oaPZMRLGFZKuB+2BJYA7///e9rzFob1lh+5jOfafde77rrrs3KK69cnRbDfffdtznkkEMGShPG/fPA6O9M/bunqagRu0JoZIMCPSdmixncHxQ4kOFLX/pSO2PMjCxLd37yk580X/3qVxsmLZYKGK8jWHFyTgmoL0MBr371q0tmrY7XfP5hlIYdOjO5wYCJnO9+97vNBz/4wdokYdczD0Qg7NkDoTqMPdEDGwZId+mllw41qcHhDFqDOEzZC5GGpUBsDWTSJwUE/uOOO65dTsQECbPlJSCo0oMrrasspc/p2NMdgTDnnf7LIxD26BkxMM+ER+0rYKrq7CkGrrjiipS6KGOSgAXKrFHsAzBTzFKV1Dgnawbf+MY3tnXleLEaYLfNt771rdl1ljVpPvnJT7ZDDEwWleDWt751SR26nnsgxgh78oAYA2MyYJQg+IMf/KA577zz2jtiCx7nDnpgaxrb7k4++WSvankmXvoAzMzSw/NBkHMUt99++2aDDTZojjrqqPaMxdr60rPUYvOuNL/73e/aPdr//d//3Tzvec/rMm8OPfTQTpsw6K8HIhD24NkwQ8mOjtp1crkqv+9975tV/fWvf21e8IIXzPIQzIpuuOGG7WxyalcKNsyejnOShTwHBerGoug73OEOs0lPP/30djyPAPmJT3yi4TCJQYGlSDVAb/NhD3tYu0cb+3ve857FZATsD33oQ0WbUPbbA/Fq3IPnc5/73Ke6p1KqrnaSyIZXXMbQGHNkX/LHPvaxdqyNnSS5YMeEA4caLAWwDIU9z7yiC3g1PfDAA5vvfOc7Eg2FWYdYMyPM+kAWjl9yySVtOSxPYvY+B9jRa/zb3/6WMwn5BHggAmEPHtK11147ci14ZeS0aQuMWz3iEY9o9yTT22SCgOO8ckGQtKeddprNYtHotddeu12XR08M+PjHP94GQF73R4V73/ve7YQK+XCCD73NH/7wh+3rNZMwBDHKYbKD12e7lfCpT33q7G4dXw/y2nbbbZtBluv4PILvhwciEPbgOfgAlqsSr4Mssk6Bn7HcZJNN2mCy/vrrz5pvs802s3SKYNaYLWWLDbzufv3rX28XJvP6ziJllu2MAxh2+L//+79mlVVWaddaPvnJT67uXd7xjnecPdcxVZe3vOUt7frDlC5kk+WBGCPswfOiR6FJjlx1OGi1tOTjs5/9bJuUU6YZ3OdV0gbBXL7IGZ/8r//6r4beD5Mpiw2MZz7rWc9qtwry/ZRxBUHu493vfnfrB3zMARK1r9iMCzJjndthwhACs9YB0+GB6BH25Dmy7EXHZvkqvf71r29fE9lGlwKC1/nnn99+kY79uMwK1wL7kbuCcG1ew9r98pe/bLhKwALvxz72se1rKouh6eHxesu6ydzrM5MunN3I0ANDA6yvrAFOm2EctXRiN7tsapft1JQZNkvrgQiES+v/2dI5UotXLXtAwm9+85t2ouOb3/xma/erX/2qbXycL2jha1/7WnvAArOpXTOcNh20Lc/r+sIzmcSYITPeFjhxmx04YPlIej5Tqll0FlAzCdIFD3rQgxqOLHva057WZdr4Z9CZIAx67YF4Ne7J46FXxxH79F44MIH9wwQA28Cvu+669lXPV5keIK98gwZB8lnKQMirftfX8zhajKUzPghaH6R24dCLZm0mr92lNX4ETPzHOYMsg6kJgpQ9zMEOts5B98sDEQh79DxY7sIrH8dqsVjYzl6qmhxSypIYD6WZYG8rnskXeplLASyU5jsp973vfbPFo2Ofs11PmDJmVth+mIqDFLSGkqU4/hWWRdUcsMC+5D/84Q/tsiLGDweBWC4ziLf6bxuBsGfPiEH4EjDONY7Fu/SUGHP7y1/+UipuwXT0fumNpr4xgpzeIgcZ1PS8+Cegj1VB808E4B7Zhyygh8haS3rczE6zba5mbaHSCzMey2G1AdPjgRgjnKBnede73rU9kYaZ1RpgjJFF1Jwqwxff6AHqC3A05lTPsibfcdg8/elPb7Pxp9owTse3UwY5XJV/HvquC9vvdIAs+dhDGDjBhqU6wwLjuExoMd7IGsKA6fFABMIJeJbM7D73uc9txw1rx/S23HLLhkmUvjZYFlADD3jAA9ogzcejCPDDBCq+XkfA49MFHK0FcN/+ROua3mWb2PwQZJl0YSKra2bbJAtywjwQgbCnD4xxQpZ/MCvK4uhBge92EAxYV8iCbXqHfQqKCugKXIPen7XXQRXPeMYzZrcq0hNmz7AFJkPYPlcD9Jzf+ta3todgqLdZky5sJtMDMUbYw+f22te+tm3EjHUNEwS5JRYoM9HAouBf//rX7avjm970pt4s+6hZzlLzaPi2CLtSVl111XatpdL43iDy2rMWmaSih8pHryIIyqPTjaNH2MPny7cwOAaKJSMsouacQnZGMNbHnmLG+zbbbLN2QoE1dDXAR4le+tKXtq+fLBgmn6UE9jTX1p16sjyIe/bwjne8oz1Jm8kXJkOAP/3pT3OWHSkNO1YIcrxC54C07MfOLdLOpQv5ZHsgAmEPnx8TCH4SwVeTXRUsoCZgsuSmFjihmVdJvlW8lMDeaNb6pb4S5+vFkiEC09FHH+1V7acFCGx8elOAXeqYLpbslIIgvT+O7ucfTsCK5YF4NZ7A583BC8y6EhwGCYK6VU6k0RidZIuNWTbDBEQXcI+sBUwtc6H3Ri+PgxTsRAizuylgYiYHjCc+5CEPiSCYc9CUyyMQTtADZgKFDwXR+PnMZ27vcdctcVx913rFrjzGoX/Na17T7ujI5cXyHnae8DqbCtycKkOAtB9rojeX+/C6jvhKlccC69SaxpRtyKbPA/Fq3MNnSu9m6623bl97CQAsKWEGeZC1dbnbYi1d7TrEXB7jkl911VWznw1g/aAFentsfdMQQWrnDLPAnJpjtxYec8wx2dlxdpykgNf0L3/5yynVWGRMXH3gAx8YS16RycJ4IALhwvh1pFxZEDzuhnPmmWe2r5gL2eCHuWl6YQR41j3usssu7XmLfECKgKZTosk3dQ4jQdIvv+FE6xQwFslnCFJQO5ucStsl4xivY489tv1olIJ6V5rQL74HIhAuvs87S+SgBXpLdv9sZ6KMAdvxmGyoPYcvk82CilnfyDIfrhykfME3SLSLhHTsm86dZbjGGmskJ0oInBdeeGGu2JHl6smynTEC4cjuXLAMYoxwwVw7fMZ8ipM1bKMAedD4WFbS5yBYe4+pHqEOVlAevOLmFo37r+EpDQfeLiSoPl2n7CxkHSLvbg9Ej7DbR0tiwYJgGs8wy1zYRcKCYLAFggnHTrH4mIuPJfHZT386i03TFzoVCP12PCZPcsBEkwd2j9hjzrx+HLxmu5mp5+h/TrsJ6J8HokfYv2fS1ogZ08c//vHtKSmDVpGvrnGiMwcQ8AU4JkjYZsfsK2vlCH6c7EIQYHE25/npFW7QshbLvrT+jzownsjayhywftLDN77xjeRRZ95uFN5++J1x0IB+eiB6hP18Lm2tOEiA46jYGkfPcIsttmi/uMb+4xLwupfqQaXSMIlAfoytac9uym6pZblvh6hejIWWlgSlAiHH7S800AsUsP+bPdAB/fNA9Aj790zm1IgxJo7M4lWZ8T721WrcaY6hYWqDoEnS0Ej7DLzSl8B/09nbptIvxtipHdrg/MNh1376+wl+vB6IQDhefy5Ybuyj5TBR9iHXbEtbsIq4jFnnmFrs7MxGZlOBTJnyyn/OOeeITeJUb5HtiQsJ/ENiDaEF/pkF9M8DEQj790zm1IjGxOc52THB7oeFAPblsu93GNhzzz3n7PMdJo+aNKWPJbHnmuVGJUjpF3riYvfdd2/4jICFl73sZc3qq69uRUH3wAMxRtiDh5CqApMX2267bcMX2PiA0SjABAmBlI8/MVPMRArf3GD3BqfQ8No9bFBgxwt7dMljobao0QNmHWAOCIRdkDqEYSE/U8A/L9ZveiAI7rHHHu1H7L0u+KXzQATCpfN9smSC1DbbbNMcfPDB7VfskkYdQsYU+fzl5z//+ebHP/5xG/A6kgylZgKDZTosEWHd41577TVUPl2JCB74JQWMl3LuYhcwO+5hgw02GPtxWyzpoXfNGs4cMKvPEIfdOZOzDfnieCBejRfHz52lsK6PV18CF7sd+JTnoMDOCs7S43XsVa96VTuxQq9voYDzBLVOjp7hQoHOGUzlTxCsuUc+W+CBWWO+Y8y3YIYBTv8mLctiWKbEzDvLkkpBkHI4MSjGCofx+MKliR7hwvm2Kmd2PDCWxHeMu5aIdGW44447tg2xy25cevslN74ix2v31VdfPa7sZ/MpTQ7VLkfhlG5Os15vvfVm82VpC9885jiw02e+nUwgY7sdr/gchMtQAmO0bO9jHSOfFSXwcfHc+NxoauvfbAEFgn3VDHsE9MMDEQiX8Dkwo8ghoupVjVIVekX0RhYLGLe0H0MnWBHI+dzouIFZ4RwMcogE6yRTayWpOweyci0WsKg9oD8eiFfjJXoWDP4zljRIEGT/8D777JP8pi6v1IsJvHp76PoQu7ev5VlYnlo7ye4benq1wAfl2WXTB+BEmoD+eCAC4RI9i4022qh6bIqlHxwVtfbaa7fHTvmvs3ELqeUhC3VrLAy2r8UqpzSzK5thMB9qT70Cc3r1IK/i7C2mF85Y6lIB/8z4NGvXAvClqt+KWm4EwiV68hwqWtOLY1nKOuus0/YetdwjNQNaWmc3zlvk8AJOx05B6mCDlN0wstQ6x9Qi6a68WSa06aabtucddtmOU88BGPSi119//XY4JNXDHWd5kddgHohAOJi/xmbNuBfLZHLn5+mrbaxHu+yyy+aU63mUnPBMwFxIYCb7jDPOyE7qjOME7Vz96f3xeVMLw3yvhfSXX355u4ebpT98vJ1X73EDH4Nn/zN7xfEbp2gfdNBB857luMuN/IbzwEozM2Mz/5yub1ODuZgt8zQyf1177bWtDOwv/ltzIQfzWiIZtHjRYMZ8PG+/TjbcLfY7FWvkDj/88HbpDDVl4TNLMU488cTWF6naM7jP66I92QQ7lt2wBEc9x1TaYWQcgMor5b777ls8zIGAwozqQgQW6k2vl5409QH4NvLmm2/e0qP8sEaR8U0+ecpeYIYguI/VVlutvV9mjrnYSsjfM3+jLNDGz0xScYwZFzPNLF5n5plX4IAbPaATkdgooAu/iwbjX/Hauik5Y+mSQfuLpUzIwP6ivSADe5oaIotZ4xuf1ZJQBDQOPOBLbSzRYPCffxgl4J/UueeeO++swu22267dc8vaOI7YGmYGlz/ONddcs11mwmk3HOW18cYbl6ozqyMw08s69dRTZ2XjJAg27LZhppg60kscB/APmMXNXIs58z6Oukce4/FABMLx+HHkXAbdZcBiYHuyiSpAb+bkk09u2fPOO685fWZ9HHnzOk1g1PgiQYuLXg/LXviYPJ+75LseuV0cKqOEF2rmWGWy7IRxNnaF0HsOCA+MwwMRCMfhxSXIg/WHLKUpbeBnbGqYHSqj3A6vrgsNzJDTIw4ID4zLAzFZMi5PLnI+9PL6tk3rtNNOiw8ULfLfQRQ3Hg9EIByPH5ckF9ai7bTTTtlJlcWsFB9VZ21h1/jmYtYpygoP1HogAmGtp3pqd8IJJzSMC/JFN8YNGfhfLKAsvvvBB+P5OBHLUgLCA5Pogd6MEWpq2+NJdOpi15nXZLaPcXEIAJMJLBrmFBqCJBdrDFPf7UjVlVlpln/oYhEyExN8l5ddGSwOZpkIEy/RA0x5MGTeA75di/d2S8UvWiDUjefwUjlg2splIoHXVC4PrMMiUHJKjNZlsb4KYG3cP//5z3bLGmvkCIYB4YGF9kAuHki+0OUr/wULhLoRYRUYeOk8QO8tFvounf+j5ME9oPghPHgOdSnGOkaoyoIHBZvW0oPmE/bhgfBA/zxg27SlB63pKGlLZY0cCIetmE0HHRAeCA+seB4YJQ7YtKN6buhAqEoMUgGlAefA2pTsculDHh4ID/TPA7Xt2toNchdKN0gaaztUIBwkQKmCuTRW7208bysedHggPDA5HvBtudTudVfWRrIu7Mvpspd+oECoiilxCZdspfOVtnKvK5UVuvBAeKD/Hii1b6tL3Yn0KZ2XDWKrtNWBkMxroFSJlE4ym39KVlN22IQHwgP99ECqTadk1F7y1J2UdN4e21qoCoS1GebsUpX3MvE2D0vX3lDYhQfCA/3zgG3LubZubbgD2aXuxtumbJRHTmflnYGwpsBchVNyL8vxXm4rHXR4IDwwWR5QexZW7bt47LxNLq3kHpO+CzoDYVcGuUK83N+M5UWncFf5oQ8PhAf674FU25aM2ls6xUsG9kDaUaEYCLsKSOm7bsjqa+hRbzDShwfCA/3wQE17tzbUuovXnWFXgi59NhB2JUzpvczy0OK7aOm1D7Z0g6ELD4QH+u8B+80QtW9qXUPLzt4l6TykZNampE8GwlICMk7pvczyosElWnqL7Y0EHR4ID0ymB2yb9jR3JFmK1h1jY8HzSmttPJ1Kg00yEPrElk9lZGXQ4j1NPl4mPodt2UGHB8IDk+mBXPu2cu5MvGhh5J4W3yrMj2yNqJMcKBD6AmylKcnqU7RkSleDO+8gDMID4YHee6CmrcuGm4G2uIuWfZto5sfzkudwdSDsytjqRYM9LVkOayxBOFfxkIcHwgOT4wHau9q0cC4GWDl3KF607hp5Cbr0Nu28QFib2NqlaMnAuig4JZfeYxwWEB4ID0y+B2qDH3eaihFeLo/I1uqly2GbRjZVkcYntHyKliyFkaUu6yho8apo4PBAeGByPUCbt+1afCoWSMbdQpew1Xk6xSNLQWcgVEWU2PIpWrIUtjJof6UcpXIDhwfCA5PrWrxyBgAAD/BJREFUAXVsaPO+nfs4wF1KJrqErc7TKR6Zh85A6BOkeCoNpLBuKIetg2QjR4EDwgPhgcn3gG3TaufCqRggncV4AT6FW+EIP3MijQrJ5Wf1okvY6qBzV8lJubqEPDwQHpgcD/i2X2rz3pa7lEx0CVsddArIz8KcQGgV0NY4RUuWwlYGXXtZB0EHhAfCA5PvAd+ua+OB7PCApyVLYSvzNLyHgSMNlUmB5L6y4muwd1YEwpSnQxYemDwPpNp2TUywNty1eNEpT2AzKGQDYVdm0gurYuLBuSvlFGSyt/pBbyjswwPhgf55wLbpVDtP6WVnMXcmXncJL7lkKSy7lC4bCK2xMihh6UgHrUv5iLcBTzKwd4R4pQ8cHggPTK4H1J5Tbd3GAekl0x2LBwskg5c8h5Umh9tAaDO0mXo6lYkKlq3yqsU5B0meKjNk4YHwwGR5QO3ZYmKE+Np4Ye3kAWQlsHpPi6/qEVKIEljsafG2UshSl3WA6BS2eQUdHggPTKYHUm1bMuKDpVPxwt+1tUEnXrTF0F1QHQhtRhQqsDQyVaiEuWnpRVssp6y88soqJnB4IDwwwR6gLatd27ZOHBDvacWIFLauQC+wtGQ1eFmNkWwo5Prrr29ZWyD0oBc3T17XXXdd6whhZNKBjz/++Obaa69trrnmmvYSDU7R5IMtWDaiLYZW+dDiJQP7ixuXTHTrjPgJD/TAA2qTaotUSbTFPvDASyZagcti0cuWLWvtwci4UjQyyZWvxdTJl2vrWUvL9dgLLC1ZCRcDIZnR8IXJyNOSIa+5uHGCjmzhKUMOgsaxkokWpjx0AksjI/gJqwyVZ7ECn8WiyTN3kbd0bUHxEx7okQf0N0+VROew2hx6aGFo2lsOo6u9bB6ehtdl64jM8rW0HgP2AtHCkntcDITWmIwUdCxtbSyNjS5ujCADJg9hBRTprBxawQ8MqHzhXHkql6AITf7C5AvPRT6ixUtG3sgsVrlg0a1B/IQHeuIB/e1THWiAv3mPZYdOFzLRwrQ9S/sAiE69Pq8Tj43NR/mBU2VKZjE0VxdYG0t3pcsGQjKhsQuTkadVEHiYC0cQbMCUJQyN44R1E/CAsORg9QR9nRTokJMOO8ngoVMYGReADWBl0rWK+AkP9MQD/u+fatGuANtGkcGnMDLaH3obwEQT+GSDrOaSPdhfth62jsPQ7Y3ecK+eJr8czAuEGJcaeUlvK06BlufmyVdYQcXylkaPg2UnPncjKksBkeCFTEGPvCUjL2hhS9vyLE254kXn6hLy8MBSeYC/eUDtwdKSCdMmoMGWRqagJx1YMhv4JJfM9g5Taa3M0rYeyMWDdfl7gU8B9iVI6ecFwlIG0ikji6EJFODcxQ1aG/EKMPAWkOPgHNhy9BosmYIe2F6UIZ78oS1WXTymDpKJztUr5OGBpfIAf/+A2oGlJbOY9gBvMXTq8oEQGwXALuxtU/mn6mVlli7dF7pBIRkIKZBGL4AHrEw6YVUSG9EpjAN8QBGvoOd5lVHClGWDIQGOspCRn8c+AIpX2R5TNjJh0a0gfsIDPfGA2hzVgRaW3GPaCDKPaYvILcaGC5nHyLoupbdprczSvp6Wt/fU3mDmR2msGlkKkoFQhiSyDd5mgly87MCeliyHuXnyKl2qj8c2TwIZvMXQ5J/ClIdc5VpaMjCADhDvcauMn/DAEnuAv3/AY9qA5LbNQKOTTDS4dOUCIWlSwbCUl3SqQxe292Fp0qX4VjjzI714j4uBEGMyUMO3ia0cWrxoj7lhgLyglafloSW3ZaVo8qeXB0ATrDxGZi/yVs8QucoDe1468hcNFm9xK4yf8MASe4C/f8Bi6BQvOW1RNFg8AU08Mnv5QIhOAdDS1k56yWx+vhzLQ6cu3Sc6gaUlk53lU3RnIEwlkkwFEyBUWXSiwdyw1YsHAza4QHu+NZr5UVnw0DYIQqtMAhq0D4DiKdcGPUurfIspT7xoi6EDwgN98YDaicWehvcX7UIyaHsht7wPZuIV7LD1tE1folWW6pLirQ6/ix/lGSwjEwWfEp0qxKdTelUMDHDj2EpueWjABptWcMOP8hBGLBqsIKhAB0ZuefJWwJNc5Uku3mPKk0y0xdAB4YG+eMC2DeoEb2XiPaYdSgYt3mLJFfjEgyWz2NIpG5veli0ajI3loXVfFov2trKXHgx4+Vh7hLYAVUgyeG4KILCIbgU3yJDnwFcc3gdBeDlOAU6Bz/KUI15BLoepj+qVw7k6hzw8sJgeUBspYXSlS+3HYmjLE+DIQ4FOestDex47K1M6i8lXfKme0uFfSw/r785ASCEKACoEGSC55UWDLc3NEXyQQVsgHy+zeuWDDFoBEJo8bQAkL+RgdAp4nkbfdVGebESnMLKA8MBSe0DtJIWtDLp00RbRg1M0wQy9xbIF22DXRdtylIfqprLFW4yvxcvvnrdy0TlcDIRkTCAQwAOSiZfM8tDiRYO5OdJbGlkOlAd65WNpyQh00MKUkQp+yND5Czlg5ZYXDQawCwgP9M0Dvr1QP7URS8suF2wkt9jT8KnLBj/0XTx1Ud6eVt1TOHU/VgYtIH0JkoGQRLahKxMr85nKBjl28JKJ5mYJOGDA0q3A/CitRMpDmLSlizpIDy3eYsktpjzxnhZvMXRAeKAvHlC7EaZeajM5WnphBSVh5NDiRQ+KfUC06VNlqD4W23tAXgKlsza5NMlAaBOm6FxmBBBAeos9jRNqgHQ1F/kp8IGpi8dWpmCXwtRLctGqK3Ivky5weGCpPWDbmepiZZ7OtS3ak3SiLYZO8ZIPi1VmCdv7StlJPwieFwjJWI3dZ4QO6NIrnexxCkBgStGyz+HUzVoZeZI3MtHUUYEwR6tOYGzsJZnFlsY2IDzQNw+ozQlTP9EWQ+vCRu0SGbR0KVoysKcls1h5WlmKtnaeVn0spt4pkE1Khwy9h3mBUAYY09iFJRdOZSYdWGklw15pwDjCBkbZgWUrrCDndcpD+SjwgSVTcJNOfAqTv+SiU9jKoAPCA33xgNoY9RGdwlYGnbtoY1anAIZMOi+TnFdh2clGOstbmS3L07onL7d86jmgV9qUHlk2EPoEZEaQACwtvlWYHxUuETw3rADlsezAKkcy0mIvHTwXdp5GpnKgdZUCofKVrcqFl85iT7dG8RMe6IEHaA8C0R6jV7uxOisTrSCV4qUD19LezvKU4XmVW8K6X92XeNLUQjEQkhHBQFgFSaZCFDDEyy7Fc6M+CIqXvc2PstGDPa16kCe0gp3yk4x8pUOmC7losOVFt8KZH+m9XPrA4YG+eIB2IkjRakvYiJad5aFpW4AClGQWW1p2YEvLxsosLb3F0P5qK+N+rA0qeIFoYck9LgZCb0xmNiBI31UIdtYGByhYCdt8RZMGvcXQ6D22MvKHt3lLhlwX9crR0llcotEFhAeW0gO0CUGK9jLxYE9LZrECl2SWFz0Ili35iRZWGTVY92wx6QaBgQKhMqYQAghgafGtwv34inHDNlCJJhl5Y++DoHjpLYYmTzB2lof2l8pBnqIla5UzP7LzcukDhwf64gHb1lK0ZOASLb3HqWAlmTBpRHuc0lmZLy/FW1+jF1hashpcHQgpgGBgMQVIpsI8L3mqgjgIewVBaABsadLaIGhp1UdpwMrXylK0yhLGRnRLzPxI5uUpXmkChweWwgO+jVk+RSOT3GLJB8EKdqQZha4pE99aO8uLthi6C9pASKaAGj18ik5l5m1tPtDKGyxbApkFBS4bEFU+mIu06EVbueguTJnWRrwwOtEtccOP5CmdtQs6PNAXD6jdUR9LWx65dBZ7ufgStsFPdl7Wxft0qityC7KTzOslF7b6HF3VIyQxwaCEKVQ2qoCV2Qoo8GHPpcDo5UovO5WvgKjypM9hn4/lRacwMoB8BZaWLHB4oG8esO3N0tRTfApbGXSKlzyHfcCT3aByX1flA5bO0pKlcJug8JMNhBSQavSSe6zCSaPKqdyUTDqwD4DYq2zRFqtsK8vR5C+dpZGJt7hEex18QHigjx7wbdDyKVoysC7uK0VLNijOBcJcPvKr16teVm9l2KcgJ8c2Gwh9RmSi4OF18NILS5ayrZXlAqQCm8XkaXnRVu5p8SlsZdAAeQaEBybFA77hW160x9wbMiv3tPQlubUZlrZ1UVmSWQydApsmpbeyYiAko1Tjl7yEKYS0NZVRPgpeXVh5p+y8zvKiS9jqoAHK8ZCSeZvgwwOL7YFUe/Myy4suYauDTvGSd+msnWh8JNpiK0/RkqUwMgvkW4I5gRDjUgO3etEl7Asmb+wFSpsq0+rQ24v0lld6K5ONsLWRzGJP1/DYBIQH+uoB29aoY4mXLoVzMiuH1qWyxFtcq/N24muwtYFOAXWyMCcQWoVoEiiISOaxbErYp8nxykNlWl6BjrSiZSfe6kSXcEqHDFDey7kbf3PyGy2CCg8snQdoMynwcvHCpBFdwlbn6RSfkqksdLqsLEVLlsLIcqDyc3rknYHQJyZTBYIULVkK+7wsL3ufN7zVSQ/O0eTr9SrLppGddDW8bJWP+MDhgT54gLaSAi/P8ZILk5dosKWlszJPe96mKelkV4Otjafha2ClmQY9bwAsIZoNOsrU2qRoLxOfwlaWoykX3SB6pbG4lvZ28BZUDysLOjyw1B5QcEnVw+ss30VLb7GlKQ/eyizdpU/Z+jTiLS7RXgcPqKzl3PLf6kCIuW/8lk/RJZl0YEvbcryuZOfTpficzMqhAZW1nJv7W9LNtQwuPLD4Hkg1dNXC63K8lYseBts0lqY+lre01/m6y9baeTrF+3zEt7YzjbqqR4hxwnSOzOpTtGTjxMrL1k8y4ZQOGWBtUnxrlLCTPHB4oM8esEHD1tPLc7yVi/aYfJF5+bh5laP7UP5entJLlrWdCQTVgZBMEuZzZFbfRUvfhW25w9ja9J5O8cgAlbWci9/wwGR7wAYOeydebvkUXZJJ5zHleVkXb9PU0tgByns5N/c3pUu+GpOsFARSOi+zfIoeVCZ7YVvHlMzqPV3DYyOw+UsWODwwKR5INXzV3etKvNWl6JJMOmHKFy3cJbN6aMCmXS5Jy7p0QwVCMk0FBy+zvKVteitP0bUym6ena/iUDTIPtj5eF3x4oC8eSAUIX7eUjZeVeKtL0bUy6iVbYdXV8pa2aWSbk9Xos4GQxF2NPqf3cstb2pdhdaKFa2yxAXJplmvn6iXz6azc0zZ/rws+PLDUHvABI1efnF1KbmWWJm/Ld9FdetU1Z+fLk31JLhubp2TCxUCIUVejz+m9fBDe2lra16ek87bwgE+zXJqXS29xLg9rE3R4YKk8UGrwvk4525Tcy0p8ra5kR1279Lofbye5cKd+plHPmyxRYnCHetY0Z5eSe5nlLZ0qf1B9Kg9V2ucluce1dj5d8OGBPnigKwiojjm7lNzLRuG70lI/b9NVZ+mFc+ml//8LhXkZM4ra0AAAAABJRU5ErkJggg==;" parent="1" vertex="1">
          <mxGeometry x="1091" y="698" width="108.07" height="98" as="geometry" />
        </mxCell>
        <mxCell id="8LMI8b_ivUfQCbqz1Wbl-126" value="卡码笔记：notes.kamacoder.com" style="text;strokeColor=none;fillColor=none;html=1;fontSize=25;fontStyle=1;verticalAlign=middle;align=center;rounded=0;shadow=1;sketch=0;rotation=-15;textOpacity=25;opacity=50;" parent="1" vertex="1">
          <mxGeometry x="783" y="533" width="424" height="33" as="geometry" />
        </mxCell>
        <mxCell id="8LMI8b_ivUfQCbqz1Wbl-127" value="卡码笔记：notes.kamacoder.com" style="text;strokeColor=none;fillColor=none;html=1;fontSize=25;fontStyle=1;verticalAlign=middle;align=center;rounded=0;shadow=1;sketch=0;rotation=-15;textOpacity=25;opacity=50;" parent="1" vertex="1">
          <mxGeometry x="-212.5049820148722" y="823.9963024349377" width="424" height="36" as="geometry" />
        </mxCell>
        <mxCell id="8LMI8b_ivUfQCbqz1Wbl-128" value="卡码笔记：notes.kamacoder.com" style="text;strokeColor=none;fillColor=none;html=1;fontSize=25;fontStyle=1;verticalAlign=middle;align=center;rounded=0;shadow=1;sketch=0;rotation=-15;textOpacity=25;opacity=50;" parent="1" vertex="1">
          <mxGeometry x="255.99501798512784" y="826.9963024349377" width="424" height="36" as="geometry" />
        </mxCell>
      </root>
    </mxGraphModel>
  </diagram>
  <diagram id="8nLjfZsYXbp5eb1rFOE9" name="第 4 页">
    <mxGraphModel dx="2226" dy="864" grid="0" gridSize="10" guides="1" tooltips="1" connect="1" arrows="1" fold="1" page="0" pageScale="1" pageWidth="827" pageHeight="1169" math="0" shadow="0">
      <root>
        <mxCell id="0" />
        <mxCell id="1" parent="0" />
        <mxCell id="hQTnIweyFEHyxNpWFhOi-1" value="" style="rounded=1;whiteSpace=wrap;html=1;strokeWidth=2;fillWeight=4;hachureGap=8;hachureAngle=45;fillColor=#1ba1e2;sketch=1;labelBackgroundColor=#ffffff;" vertex="1" parent="1">
          <mxGeometry x="-401" y="87" width="1550" height="60" as="geometry" />
        </mxCell>
        <mxCell id="hQTnIweyFEHyxNpWFhOi-2" value="专题四——《API—常用工具》" style="text;strokeColor=none;fillColor=none;html=1;fontSize=40;fontStyle=1;verticalAlign=middle;align=center;labelBackgroundColor=#ffffff;" vertex="1" parent="1">
          <mxGeometry x="-411" y="17" width="565" height="51" as="geometry" />
        </mxCell>
        <mxCell id="O-nWMs2mY5VIFPc0IFYu-1" style="edgeStyle=orthogonalEdgeStyle;rounded=0;orthogonalLoop=1;jettySize=auto;html=1;entryX=0;entryY=0.5;entryDx=0;entryDy=0;curved=1;strokeColor=#47F9FF;strokeWidth=3;" edge="1" parent="1" source="O-nWMs2mY5VIFPc0IFYu-2" target="O-nWMs2mY5VIFPc0IFYu-3">
          <mxGeometry relative="1" as="geometry">
            <Array as="points">
              <mxPoint x="-246" y="613" />
              <mxPoint x="-246" y="508" />
            </Array>
          </mxGeometry>
        </mxCell>
        <mxCell id="O-nWMs2mY5VIFPc0IFYu-2" value="" style="rounded=0;whiteSpace=wrap;html=1;fillColor=#dae8fc;strokeColor=#6c8ebf;shadow=1;" vertex="1" parent="1">
          <mxGeometry x="-316" y="488" width="50" height="250" as="geometry" />
        </mxCell>
        <mxCell id="O-nWMs2mY5VIFPc0IFYu-3" value="" style="rounded=0;whiteSpace=wrap;html=1;fillColor=#dae8fc;strokeColor=#6c8ebf;shadow=1;" vertex="1" parent="1">
          <mxGeometry x="-106" y="478" width="120" height="60" as="geometry" />
        </mxCell>
        <mxCell id="O-nWMs2mY5VIFPc0IFYu-4" value="" style="rounded=0;whiteSpace=wrap;html=1;fillColor=#dae8fc;strokeColor=#6c8ebf;shadow=1;" vertex="1" parent="1">
          <mxGeometry x="-106" y="688" width="120" height="60" as="geometry" />
        </mxCell>
        <mxCell id="O-nWMs2mY5VIFPc0IFYu-5" value="&lt;font color=&quot;#009999&quot;&gt;存储对象&lt;/font&gt;" style="text;html=1;fontSize=18;fontStyle=1;verticalAlign=middle;align=center;shadow=1;fillColor=#f5f5f5;strokeColor=#666666;fontColor=#333333;" vertex="1" parent="1">
          <mxGeometry x="-256" y="508" width="90" height="30" as="geometry" />
        </mxCell>
        <mxCell id="O-nWMs2mY5VIFPc0IFYu-6" value="" style="edgeStyle=orthogonalEdgeStyle;curved=1;rounded=0;orthogonalLoop=1;jettySize=auto;html=1;strokeColor=#47F9FF;strokeWidth=3;fontSize=18;" edge="1" parent="1" source="O-nWMs2mY5VIFPc0IFYu-7" target="O-nWMs2mY5VIFPc0IFYu-16">
          <mxGeometry relative="1" as="geometry" />
        </mxCell>
        <mxCell id="O-nWMs2mY5VIFPc0IFYu-7" value="双列集合" style="text;strokeColor=none;fillColor=none;html=1;fontSize=24;fontStyle=1;verticalAlign=middle;align=center;shadow=1;" vertex="1" parent="1">
          <mxGeometry x="-96" y="698" width="100" height="40" as="geometry" />
        </mxCell>
        <mxCell id="O-nWMs2mY5VIFPc0IFYu-8" value="" style="edgeStyle=orthogonalEdgeStyle;curved=1;rounded=0;orthogonalLoop=1;jettySize=auto;html=1;strokeColor=#47F9FF;strokeWidth=3;fontSize=15;" edge="1" parent="1" source="O-nWMs2mY5VIFPc0IFYu-16" target="O-nWMs2mY5VIFPc0IFYu-17">
          <mxGeometry relative="1" as="geometry" />
        </mxCell>
        <mxCell id="O-nWMs2mY5VIFPc0IFYu-9" value="key无序" style="edgeLabel;html=1;align=center;verticalAlign=middle;resizable=0;points=[];fontSize=16;fontStyle=1" vertex="1" connectable="0" parent="O-nWMs2mY5VIFPc0IFYu-8">
          <mxGeometry x="0.1748" y="3" relative="1" as="geometry">
            <mxPoint x="-5" y="3" as="offset" />
          </mxGeometry>
        </mxCell>
        <mxCell id="O-nWMs2mY5VIFPc0IFYu-10" style="edgeStyle=orthogonalEdgeStyle;curved=1;rounded=0;orthogonalLoop=1;jettySize=auto;html=1;entryX=0;entryY=0.5;entryDx=0;entryDy=0;strokeColor=#47F9FF;strokeWidth=3;fontSize=21;" edge="1" parent="1" source="O-nWMs2mY5VIFPc0IFYu-16" target="O-nWMs2mY5VIFPc0IFYu-45">
          <mxGeometry relative="1" as="geometry">
            <Array as="points">
              <mxPoint x="284" y="718" />
              <mxPoint x="284" y="763" />
            </Array>
          </mxGeometry>
        </mxCell>
        <mxCell id="O-nWMs2mY5VIFPc0IFYu-11" value="key有序" style="edgeLabel;html=1;align=center;verticalAlign=middle;resizable=0;points=[];fontSize=16;fontStyle=1" vertex="1" connectable="0" parent="O-nWMs2mY5VIFPc0IFYu-10">
          <mxGeometry x="0.1563" y="3" relative="1" as="geometry">
            <mxPoint as="offset" />
          </mxGeometry>
        </mxCell>
        <mxCell id="O-nWMs2mY5VIFPc0IFYu-12" style="edgeStyle=orthogonalEdgeStyle;curved=1;rounded=0;orthogonalLoop=1;jettySize=auto;html=1;entryX=0;entryY=0.5;entryDx=0;entryDy=0;strokeColor=#47F9FF;strokeWidth=3;fontSize=16;" edge="1" parent="1" source="O-nWMs2mY5VIFPc0IFYu-16" target="O-nWMs2mY5VIFPc0IFYu-46">
          <mxGeometry relative="1" as="geometry">
            <Array as="points">
              <mxPoint x="274" y="718" />
              <mxPoint x="274" y="813" />
            </Array>
          </mxGeometry>
        </mxCell>
        <mxCell id="O-nWMs2mY5VIFPc0IFYu-13" value="key排序" style="edgeLabel;html=1;align=center;verticalAlign=middle;resizable=0;points=[];fontSize=16;fontStyle=1" vertex="1" connectable="0" parent="O-nWMs2mY5VIFPc0IFYu-12">
          <mxGeometry x="0.3621" y="6" relative="1" as="geometry">
            <mxPoint x="15" as="offset" />
          </mxGeometry>
        </mxCell>
        <mxCell id="O-nWMs2mY5VIFPc0IFYu-14" style="edgeStyle=orthogonalEdgeStyle;curved=1;rounded=0;orthogonalLoop=1;jettySize=auto;html=1;entryX=0;entryY=0.5;entryDx=0;entryDy=0;strokeColor=#47F9FF;strokeWidth=3;fontSize=16;" edge="1" parent="1" source="O-nWMs2mY5VIFPc0IFYu-16" target="O-nWMs2mY5VIFPc0IFYu-47">
          <mxGeometry relative="1" as="geometry">
            <Array as="points">
              <mxPoint x="264" y="863" />
            </Array>
          </mxGeometry>
        </mxCell>
        <mxCell id="O-nWMs2mY5VIFPc0IFYu-15" value="读取文件" style="edgeLabel;html=1;align=center;verticalAlign=middle;resizable=0;points=[];fontSize=16;fontStyle=1" vertex="1" connectable="0" parent="O-nWMs2mY5VIFPc0IFYu-14">
          <mxGeometry x="-0.1227" y="34" relative="1" as="geometry">
            <mxPoint as="offset" />
          </mxGeometry>
        </mxCell>
        <mxCell id="O-nWMs2mY5VIFPc0IFYu-16" value="Map" style="text;strokeColor=#b85450;fillColor=#f8cecc;html=1;fontSize=24;fontStyle=1;verticalAlign=middle;align=center;shadow=1;" vertex="1" parent="1">
          <mxGeometry x="164" y="698" width="100" height="40" as="geometry" />
        </mxCell>
        <mxCell id="O-nWMs2mY5VIFPc0IFYu-17" value="HashMap（底层是“数组 + 链表 + 红黑树”）" style="text;strokeColor=#82b366;fillColor=#d5e8d4;html=1;fontSize=21;fontStyle=1;verticalAlign=middle;align=left;shadow=1;" vertex="1" parent="1">
          <mxGeometry x="374" y="703" width="420" height="30" as="geometry" />
        </mxCell>
        <mxCell id="O-nWMs2mY5VIFPc0IFYu-18" style="edgeStyle=orthogonalEdgeStyle;curved=1;rounded=0;orthogonalLoop=1;jettySize=auto;html=1;entryX=0;entryY=0.5;entryDx=0;entryDy=0;strokeColor=#47F9FF;strokeWidth=3;" edge="1" parent="1" source="O-nWMs2mY5VIFPc0IFYu-19" target="O-nWMs2mY5VIFPc0IFYu-4">
          <mxGeometry relative="1" as="geometry">
            <Array as="points">
              <mxPoint x="-246" y="613" />
              <mxPoint x="-246" y="718" />
            </Array>
          </mxGeometry>
        </mxCell>
        <mxCell id="O-nWMs2mY5VIFPc0IFYu-19" value="判断数据的存储类型" style="text;strokeColor=none;fillColor=none;html=1;fontSize=24;fontStyle=1;verticalAlign=middle;align=left;shadow=1;whiteSpace=wrap;" vertex="1" parent="1">
          <mxGeometry x="-306" y="592.5" width="40" height="41" as="geometry" />
        </mxCell>
        <mxCell id="O-nWMs2mY5VIFPc0IFYu-20" value="&lt;font color=&quot;#00994d&quot;&gt;存储键值对&lt;/font&gt;" style="text;html=1;fontSize=18;fontStyle=1;verticalAlign=middle;align=center;shadow=1;fillColor=#f5f5f5;strokeColor=#666666;fontColor=#333333;" vertex="1" parent="1">
          <mxGeometry x="-256" y="678" width="90" height="30" as="geometry" />
        </mxCell>
        <mxCell id="O-nWMs2mY5VIFPc0IFYu-21" value="" style="edgeStyle=orthogonalEdgeStyle;curved=1;rounded=0;orthogonalLoop=1;jettySize=auto;html=1;strokeColor=#47F9FF;strokeWidth=3;fontSize=18;" edge="1" parent="1" source="O-nWMs2mY5VIFPc0IFYu-25" target="O-nWMs2mY5VIFPc0IFYu-30">
          <mxGeometry relative="1" as="geometry">
            <Array as="points">
              <mxPoint x="54" y="508" />
              <mxPoint x="54" y="438" />
            </Array>
          </mxGeometry>
        </mxCell>
        <mxCell id="O-nWMs2mY5VIFPc0IFYu-22" value="&lt;font style=&quot;font-size: 15px&quot;&gt;&lt;b&gt;允许重复&lt;/b&gt;&lt;/font&gt;" style="edgeLabel;html=1;align=center;verticalAlign=middle;resizable=0;points=[];fontSize=18;" vertex="1" connectable="0" parent="O-nWMs2mY5VIFPc0IFYu-21">
          <mxGeometry x="-0.2736" y="10" relative="1" as="geometry">
            <mxPoint x="11" y="-20" as="offset" />
          </mxGeometry>
        </mxCell>
        <mxCell id="O-nWMs2mY5VIFPc0IFYu-23" style="edgeStyle=orthogonalEdgeStyle;curved=1;rounded=0;orthogonalLoop=1;jettySize=auto;html=1;strokeColor=#47F9FF;strokeWidth=3;fontSize=18;" edge="1" parent="1" source="O-nWMs2mY5VIFPc0IFYu-25" target="O-nWMs2mY5VIFPc0IFYu-38">
          <mxGeometry relative="1" as="geometry">
            <Array as="points">
              <mxPoint x="54" y="508" />
              <mxPoint x="54" y="592" />
            </Array>
          </mxGeometry>
        </mxCell>
        <mxCell id="O-nWMs2mY5VIFPc0IFYu-24" value="&lt;font style=&quot;font-size: 15px&quot;&gt;&lt;b&gt;不允许重复&lt;/b&gt;&lt;/font&gt;" style="edgeLabel;html=1;align=center;verticalAlign=middle;resizable=0;points=[];fontSize=18;" vertex="1" connectable="0" parent="O-nWMs2mY5VIFPc0IFYu-23">
          <mxGeometry x="0.2422" y="10" relative="1" as="geometry">
            <mxPoint x="-8" y="-24" as="offset" />
          </mxGeometry>
        </mxCell>
        <mxCell id="O-nWMs2mY5VIFPc0IFYu-25" value="单列集合" style="text;strokeColor=none;fillColor=none;html=1;fontSize=24;fontStyle=1;verticalAlign=middle;align=center;shadow=1;" vertex="1" parent="1">
          <mxGeometry x="-96" y="488" width="100" height="40" as="geometry" />
        </mxCell>
        <mxCell id="O-nWMs2mY5VIFPc0IFYu-26" value="" style="edgeStyle=orthogonalEdgeStyle;curved=1;rounded=0;orthogonalLoop=1;jettySize=auto;html=1;strokeColor=#47F9FF;strokeWidth=3;fontSize=18;" edge="1" parent="1" source="O-nWMs2mY5VIFPc0IFYu-30" target="O-nWMs2mY5VIFPc0IFYu-31">
          <mxGeometry relative="1" as="geometry">
            <Array as="points">
              <mxPoint x="324" y="438" />
              <mxPoint x="324" y="378" />
            </Array>
          </mxGeometry>
        </mxCell>
        <mxCell id="O-nWMs2mY5VIFPc0IFYu-27" value="&lt;b&gt;增删多&lt;/b&gt;" style="edgeLabel;html=1;align=center;verticalAlign=middle;resizable=0;points=[];fontSize=18;" vertex="1" connectable="0" parent="O-nWMs2mY5VIFPc0IFYu-26">
          <mxGeometry x="0.2044" y="-3" relative="1" as="geometry">
            <mxPoint as="offset" />
          </mxGeometry>
        </mxCell>
        <mxCell id="O-nWMs2mY5VIFPc0IFYu-28" style="edgeStyle=orthogonalEdgeStyle;curved=1;rounded=0;orthogonalLoop=1;jettySize=auto;html=1;entryX=0;entryY=0.5;entryDx=0;entryDy=0;strokeColor=#47F9FF;strokeWidth=3;fontSize=18;" edge="1" parent="1" source="O-nWMs2mY5VIFPc0IFYu-30" target="O-nWMs2mY5VIFPc0IFYu-41">
          <mxGeometry relative="1" as="geometry" />
        </mxCell>
        <mxCell id="O-nWMs2mY5VIFPc0IFYu-29" value="&lt;b&gt;改查多&lt;/b&gt;" style="edgeLabel;html=1;align=center;verticalAlign=middle;resizable=0;points=[];fontSize=18;" vertex="1" connectable="0" parent="O-nWMs2mY5VIFPc0IFYu-28">
          <mxGeometry x="0.14" y="1" relative="1" as="geometry">
            <mxPoint x="4" y="2" as="offset" />
          </mxGeometry>
        </mxCell>
        <mxCell id="O-nWMs2mY5VIFPc0IFYu-30" value="List" style="text;strokeColor=#b85450;fillColor=#f8cecc;html=1;fontSize=24;fontStyle=1;verticalAlign=middle;align=center;shadow=1;" vertex="1" parent="1">
          <mxGeometry x="164" y="418" width="100" height="40" as="geometry" />
        </mxCell>
        <mxCell id="O-nWMs2mY5VIFPc0IFYu-31" value="LinkedList（底层维护了一个双向链表）" style="text;strokeColor=#82b366;fillColor=#d5e8d4;html=1;fontSize=21;fontStyle=1;verticalAlign=middle;align=left;shadow=1;" vertex="1" parent="1">
          <mxGeometry x="374" y="358" width="390" height="30" as="geometry" />
        </mxCell>
        <mxCell id="O-nWMs2mY5VIFPc0IFYu-32" value="" style="edgeStyle=orthogonalEdgeStyle;curved=1;rounded=0;orthogonalLoop=1;jettySize=auto;html=1;strokeColor=#47F9FF;strokeWidth=3;fontSize=20;" edge="1" parent="1" source="O-nWMs2mY5VIFPc0IFYu-38" target="O-nWMs2mY5VIFPc0IFYu-39">
          <mxGeometry relative="1" as="geometry" />
        </mxCell>
        <mxCell id="O-nWMs2mY5VIFPc0IFYu-33" value="&lt;b&gt;无序&lt;/b&gt;" style="edgeLabel;html=1;align=center;verticalAlign=middle;resizable=0;points=[];fontSize=20;" vertex="1" connectable="0" parent="O-nWMs2mY5VIFPc0IFYu-32">
          <mxGeometry x="-0.2398" y="2" relative="1" as="geometry">
            <mxPoint x="6" y="-29" as="offset" />
          </mxGeometry>
        </mxCell>
        <mxCell id="O-nWMs2mY5VIFPc0IFYu-34" style="edgeStyle=orthogonalEdgeStyle;curved=1;rounded=0;orthogonalLoop=1;jettySize=auto;html=1;strokeColor=#47F9FF;strokeWidth=3;fontSize=21;fontStyle=1" edge="1" parent="1" source="O-nWMs2mY5VIFPc0IFYu-38" target="O-nWMs2mY5VIFPc0IFYu-43">
          <mxGeometry relative="1" as="geometry" />
        </mxCell>
        <mxCell id="O-nWMs2mY5VIFPc0IFYu-35" value="&lt;b&gt;有序&lt;/b&gt;" style="edgeLabel;html=1;align=center;verticalAlign=middle;resizable=0;points=[];fontSize=21;" vertex="1" connectable="0" parent="O-nWMs2mY5VIFPc0IFYu-34">
          <mxGeometry x="0.4351" y="3" relative="1" as="geometry">
            <mxPoint x="-10" y="3" as="offset" />
          </mxGeometry>
        </mxCell>
        <mxCell id="O-nWMs2mY5VIFPc0IFYu-36" style="edgeStyle=orthogonalEdgeStyle;curved=1;rounded=0;orthogonalLoop=1;jettySize=auto;html=1;entryX=0;entryY=0.5;entryDx=0;entryDy=0;strokeColor=#47F9FF;strokeWidth=3;fontSize=21;" edge="1" parent="1" source="O-nWMs2mY5VIFPc0IFYu-38" target="O-nWMs2mY5VIFPc0IFYu-44">
          <mxGeometry relative="1" as="geometry">
            <Array as="points">
              <mxPoint x="304" y="592" />
              <mxPoint x="304" y="647" />
            </Array>
          </mxGeometry>
        </mxCell>
        <mxCell id="O-nWMs2mY5VIFPc0IFYu-37" value="排序" style="edgeLabel;html=1;align=center;verticalAlign=middle;resizable=0;points=[];fontSize=21;fontStyle=1" vertex="1" connectable="0" parent="O-nWMs2mY5VIFPc0IFYu-36">
          <mxGeometry x="0.3209" y="8" relative="1" as="geometry">
            <mxPoint x="-4.5" y="8" as="offset" />
          </mxGeometry>
        </mxCell>
        <mxCell id="O-nWMs2mY5VIFPc0IFYu-38" value="Set" style="text;strokeColor=#b85450;fillColor=#f8cecc;html=1;fontSize=24;fontStyle=1;verticalAlign=middle;align=center;shadow=1;" vertex="1" parent="1">
          <mxGeometry x="164" y="572" width="100" height="40" as="geometry" />
        </mxCell>
        <mxCell id="O-nWMs2mY5VIFPc0IFYu-39" value="HashSet（底层为HashMap）" style="text;strokeColor=#82b366;fillColor=#d5e8d4;html=1;fontSize=21;fontStyle=1;verticalAlign=middle;align=left;shadow=1;" vertex="1" parent="1">
          <mxGeometry x="374" y="548" width="280" height="26" as="geometry" />
        </mxCell>
        <mxCell id="O-nWMs2mY5VIFPc0IFYu-40" style="edgeStyle=orthogonalEdgeStyle;curved=1;rounded=0;orthogonalLoop=1;jettySize=auto;html=1;entryX=1;entryY=0.5;entryDx=0;entryDy=0;strokeColor=#47F9FF;strokeWidth=3;fontSize=20;" edge="1" parent="1" source="O-nWMs2mY5VIFPc0IFYu-41" target="O-nWMs2mY5VIFPc0IFYu-42">
          <mxGeometry relative="1" as="geometry">
            <Array as="points">
              <mxPoint x="589" y="468" />
              <mxPoint x="674" y="468" />
              <mxPoint x="674" y="443" />
            </Array>
          </mxGeometry>
        </mxCell>
        <mxCell id="O-nWMs2mY5VIFPc0IFYu-41" value="ArrayList（底层维护了Object类型的可变数组）" style="text;strokeColor=#82b366;fillColor=#d5e8d4;html=1;fontSize=20;fontStyle=1;verticalAlign=middle;align=left;shadow=1;" vertex="1" parent="1">
          <mxGeometry x="374" y="478" width="430" height="30" as="geometry" />
        </mxCell>
        <mxCell id="O-nWMs2mY5VIFPc0IFYu-42" value="若需要线程同步，使用Vector" style="text;strokeColor=#6c8ebf;fillColor=#dae8fc;html=1;fontSize=20;fontStyle=1;verticalAlign=middle;align=left;shadow=1;" vertex="1" parent="1">
          <mxGeometry x="374" y="428" width="280" height="30" as="geometry" />
        </mxCell>
        <mxCell id="O-nWMs2mY5VIFPc0IFYu-43" value="LinkedHashSet（插入和取出顺序一致）" style="text;strokeColor=#82b366;fillColor=#d5e8d4;html=1;fontSize=21;fontStyle=1;verticalAlign=middle;align=left;shadow=1;" vertex="1" parent="1">
          <mxGeometry x="374" y="592" width="390" height="26" as="geometry" />
        </mxCell>
        <mxCell id="O-nWMs2mY5VIFPc0IFYu-44" value="TreeSet" style="text;strokeColor=#82b366;fillColor=#d5e8d4;html=1;fontSize=21;fontStyle=1;verticalAlign=middle;align=left;shadow=1;" vertex="1" parent="1">
          <mxGeometry x="374" y="633.5" width="90" height="26" as="geometry" />
        </mxCell>
        <mxCell id="O-nWMs2mY5VIFPc0IFYu-45" value="LinkedHashMap（键插入和取出顺序一致）" style="text;strokeColor=#82b366;fillColor=#d5e8d4;html=1;fontSize=21;fontStyle=1;verticalAlign=middle;align=left;shadow=1;" vertex="1" parent="1">
          <mxGeometry x="374" y="748" width="420" height="30" as="geometry" />
        </mxCell>
        <mxCell id="O-nWMs2mY5VIFPc0IFYu-46" value="TreeMap" style="text;strokeColor=#82b366;fillColor=#d5e8d4;html=1;fontSize=21;fontStyle=1;verticalAlign=middle;align=left;shadow=1;" vertex="1" parent="1">
          <mxGeometry x="374" y="798" width="100" height="30" as="geometry" />
        </mxCell>
        <mxCell id="O-nWMs2mY5VIFPc0IFYu-47" value="Properties" style="text;strokeColor=#82b366;fillColor=#d5e8d4;html=1;fontSize=21;fontStyle=1;verticalAlign=middle;align=left;shadow=1;" vertex="1" parent="1">
          <mxGeometry x="374" y="848" width="120" height="30" as="geometry" />
        </mxCell>
      </root>
    </mxGraphModel>
  </diagram>
  <diagram id="FWpeQ1kBRrrQa4IMOw1d" name="第 5 页">
    <mxGraphModel dx="2226" dy="1264" grid="0" gridSize="10" guides="1" tooltips="1" connect="1" arrows="1" fold="1" page="0" pageScale="1" pageWidth="827" pageHeight="1169" math="0" shadow="0">
      <root>
        <mxCell id="0" />
        <mxCell id="1" parent="0" />
        <mxCell id="3z9iyQqJJ_k68RvGyOMw-1" value="" style="rounded=1;whiteSpace=wrap;html=1;strokeWidth=2;fillWeight=4;hachureGap=8;hachureAngle=45;fillColor=#1ba1e2;sketch=1;labelBackgroundColor=#ffffff;" vertex="1" parent="1">
          <mxGeometry x="-418" y="-3" width="1550" height="60" as="geometry" />
        </mxCell>
        <mxCell id="3z9iyQqJJ_k68RvGyOMw-2" value="专题五——《反射》" style="text;strokeColor=none;fillColor=none;html=1;fontSize=40;fontStyle=1;verticalAlign=middle;align=center;labelBackgroundColor=#ffffff;" vertex="1" parent="1">
          <mxGeometry x="-428" y="-73" width="370" height="40" as="geometry" />
        </mxCell>
      </root>
    </mxGraphModel>
  </diagram>
  <diagram id="503-aFc9MHXmU9Dx1IPf" name="第 6 页">
    <mxGraphModel dx="2226" dy="1264" grid="0" gridSize="10" guides="1" tooltips="1" connect="1" arrows="1" fold="1" page="0" pageScale="1" pageWidth="827" pageHeight="1169" math="0" shadow="0">
      <root>
        <mxCell id="0" />
        <mxCell id="1" parent="0" />
        <mxCell id="JnuU9LWsc3qKjEDaChHi-1" value="" style="rounded=1;whiteSpace=wrap;html=1;strokeWidth=2;fillWeight=4;hachureGap=8;hachureAngle=45;fillColor=#1ba1e2;sketch=1;labelBackgroundColor=#ffffff;" vertex="1" parent="1">
          <mxGeometry x="-452" y="56" width="1550" height="60" as="geometry" />
        </mxCell>
        <mxCell id="JnuU9LWsc3qKjEDaChHi-2" value="专题六——《多线程》" style="text;strokeColor=none;fillColor=none;html=1;fontSize=40;fontStyle=1;verticalAlign=middle;align=center;labelBackgroundColor=#ffffff;" vertex="1" parent="1">
          <mxGeometry x="-462" y="-14" width="423" height="40" as="geometry" />
        </mxCell>
      </root>
    </mxGraphModel>
  </diagram>
</mxfile>
